<svg id="Layer_1" data-name="Layer 1" xmlns="http://www.w3.org/2000/svg" xmlns:xlink="http://www.w3.org/1999/xlink" viewBox="0 0 286.76 73.38"><defs><linearGradient id="linear-gradient" x1="-570.77" y1="772.97" x2="-569.77" y2="772.97" gradientTransform="matrix(17.2, 0, 0, -48.99, 9992.4, 37907.37)" gradientUnits="userSpaceOnUse"><stop offset="0" stop-color="#ffeba9"/><stop offset="0.5" stop-color="#fecc00"/><stop offset="1" stop-color="#f8ae00"/></linearGradient><linearGradient id="linear-gradient-2" x1="-564.5" y1="737.61" x2="-563.5" y2="737.61" gradientTransform="matrix(14.6, 0, 0, -14.27, 8419.97, 10533.7)" xlink:href="#linear-gradient"/><linearGradient id="linear-gradient-3" x1="-590.7" y1="771.76" x2="-589.7" y2="771.76" gradientTransform="matrix(39.6, 0, 0, -45.24, 23430.27, 34960.44)" xlink:href="#linear-gradient"/></defs><title>Camion official logo</title><g id="Camion_official_logo" data-name="Camion official logo"><g id="Group_29969" data-name="Group 29969"><path id="Path_73140" data-name="Path 73140" d="M185.45,17.61a10.21,10.21,0,0,0-10.22,10.21h0V66.6h17.2v-49Z" transform="translate(0 -0.01)" style="fill:url(#linear-gradient)"/><path id="Path_73141" data-name="Path 73141" d="M180.7,14.28h7.15a3.73,3.73,0,0,0,3.72-3.73V3.41A3.25,3.25,0,0,0,187.85,0H180.7A3.25,3.25,0,0,0,177,3.41v7.14A3.73,3.73,0,0,0,180.7,14.28Z" transform="translate(0 -0.01)" style="fill:url(#linear-gradient-2)"/></g><path id="Path_73142" data-name="Path 73142" d="M35.26,53.34Q21.95,53.34,22,36.2q0-17,13.3-16.93a10.57,10.57,0,0,1,6.68,2.29,1.44,1.44,0,0,0,1.66.09l13.68-8.57a1.44,1.44,0,0,0,.46-2l-.1-.14A23.22,23.22,0,0,0,55,8.24Q47.13,1.16,35,1.16q-15.25,0-25.25,10.35C3.25,18.26,0,26.52,0,36.36S3.28,54.53,9.86,61.27,24.92,71.53,35,71.53q12.2,0,20.12-7.23a24.25,24.25,0,0,0,5.67-7.56,1.43,1.43,0,0,0-.59-1.85L46.91,47.3a1.44,1.44,0,0,0-1.91.45C42.44,51.45,39.18,53.34,35.26,53.34Z" transform="translate(0 -0.01)"/><path id="Path_73143" data-name="Path 73143" d="M282.33,21q4.43,4.24,4.43,11.39V66.56H269.25V35.18a4.6,4.6,0,0,0-1.6-3.51A7.29,7.29,0,0,0,262.57,30a9.67,9.67,0,0,0-5.13,1.66V66.6H239.93V22.83a5.13,5.13,0,0,1,5.13-5.13h12.39v1.57a21.08,21.08,0,0,1,10.78-3C274.41,16.34,279.09,17.88,282.33,21Z" transform="translate(0 -0.01)"/><path id="Path_73144" data-name="Path 73144" d="M231.08,22.26c5,4.86,7.54,11.07,7.54,18.7s-2.51,13.83-7.54,18.7a25.29,25.29,0,0,1-18.32,7.11q-11,0-18.34-7.11-7.59-7.32-7.58-18.7t7.58-18.7a25.52,25.52,0,0,1,18.34-7Q223.8,15.22,231.08,22.26ZM206.6,33.68a10.25,10.25,0,0,0-2.5,7.2,10.38,10.38,0,0,0,2.5,7.2,8,8,0,0,0,6.16,2.68A8.05,8.05,0,0,0,219,48.08a11.61,11.61,0,0,0,0-14.4,8.47,8.47,0,0,0-12-.4Z" transform="translate(0 -0.01)"/><g id="Group_29971" data-name="Group 29971"><path id="Path_73145" data-name="Path 73145" d="M66.35,57.3a8.06,8.06,0,1,0,7.38,7.38A8.06,8.06,0,0,0,66.35,57.3Zm.85,2.47A5.74,5.74,0,0,0,65.4,71,5.73,5.73,0,0,1,64.34,59.6a5.53,5.53,0,0,1,2.93.18S67.23,59.76,67.2,59.76Z" transform="translate(0 -0.01)" style="fill:#fcc400"/><g id="Group_29970" data-name="Group 29970"><path id="Path_73146" data-name="Path 73146" d="M172.59,23h-5.72a2.27,2.27,0,0,0,0,4.53h5.72a2.27,2.27,0,0,0,0-4.53Z" transform="translate(0 -0.01)"/><path id="Path_73147" data-name="Path 73147" d="M164.24,52h-2a3,3,0,0,1-.09-6h2a2.84,2.84,0,0,0,2.63-3v0a2.89,2.89,0,0,0-2.72-2.93H151.24a2.83,2.83,0,0,1-2.57-3h0a2.83,2.83,0,0,1,2.63-3h12.4v0h1.24a2.82,2.82,0,0,0,2.63-3h0a2.83,2.83,0,0,0-2.63-3H154.5a3,3,0,0,1-.09-6H157a2,2,0,0,0,.47.05h9.41a2.82,2.82,0,0,0,2.63-3h0a2.83,2.83,0,0,0-2.63-3h-9.41l-.22,0H86.84A4.55,4.55,0,0,0,82.61,21V65.49a1.11,1.11,0,0,0,1,1.17h18.53V28.32A1.94,1.94,0,0,1,104,26.27h8.6a1.94,1.94,0,0,1,1.82,2.05V66.64h14.86v-38a1.94,1.94,0,0,1,1.82-2.05h8.6a1.94,1.94,0,0,1,1.82,2.05v38h16.27a4.64,4.64,0,0,0,4.57-4.7V58h1.82a2.86,2.86,0,0,0,2.72-2.93A2.89,2.89,0,0,0,164.24,52Z" transform="translate(0 -0.01)"/><ellipse id="Ellipse_2182" data-name="Ellipse 2182" cx="169.01" cy="37.45" rx="2.68" ry="2.66"/></g><path id="Path_73148" data-name="Path 73148" d="M81.26,53.75V22.17c0-.07,0-.36-.52-.85a3.7,3.7,0,0,0-2.5-1l-25.57-.2a9.06,9.06,0,0,0-6.35,3,10,10,0,0,0-1.62,3.74V29H50a2,2,0,0,0,1.94-2c0-.72.65-1.85,1.44-1.85H69.7a3.08,3.08,0,0,1,3.18,3v6.39l-.31.31H56.38c-9,0-14.58,6.75-14.58,15.73h0l-.16,11.73A3.24,3.24,0,0,0,45,65.39H57.23a9,9,0,0,1,18.07,0h4.86a1.09,1.09,0,0,0,1.1-1.08s0,0,0,0V53.75Zm-28.9,6.41H47a.29.29,0,0,1-.31-.27v0a.3.3,0,0,1,.31-.29h5.36a.29.29,0,1,1,0,.58h0Z" transform="translate(0 -0.01)" style="fill:url(#linear-gradient-3)"/></g></g></svg>