<svg id="Layer_1" data-name="Layer 1" xmlns="http://www.w3.org/2000/svg" xmlns:xlink="http://www.w3.org/1999/xlink" viewBox="0 0 152.6 75.45"><defs><linearGradient id="linear-gradient" x1="-662.7" y1="779.08" x2="-661.7" y2="779.08" gradientTransform="matrix(65.33, 0, 0, -75.45, 43293.44, 58822.21)" gradientUnits="userSpaceOnUse"><stop offset="0" stop-color="#fff"/><stop offset="1" stop-color="#f2f2f2"/></linearGradient><linearGradient id="linear-gradient-2" x1="-600.23" y1="621.01" x2="-599.23" y2="621.01" gradientTransform="matrix(9.25, 0, 0, -4.24, 5694.29, 2666.4)" xlink:href="#linear-gradient"/><linearGradient id="linear-gradient-3" x1="-664.73" y1="773.45" x2="-663.73" y2="773.45" gradientTransform="matrix(81.33, 0, 0, -47.23, 54131.81, 36576.02)" xlink:href="#linear-gradient"/><linearGradient id="linear-gradient-4" x1="-538.88" y1="646.81" x2="-537.88" y2="646.81" gradientTransform="matrix(5.02, 0, 0, -5.02, 2848.92, 3287.32)" xlink:href="#linear-gradient"/><linearGradient id="linear-gradient-5" x1="-654.83" y1="771.7" x2="-653.83" y2="771.7" gradientTransform="matrix(37.03, 0, 0, -42.31, 24276.39, 32699.82)" gradientUnits="userSpaceOnUse"><stop offset="0" stop-color="#ffeba9"/><stop offset="0.5" stop-color="#fecc00"/><stop offset="1" stop-color="#f8ae00"/></linearGradient></defs><title>Cam official logo-w</title><g id="Cam_official_logo-w" data-name="Cam official logo-w"><path id="Path_73135" data-name="Path 73135" d="M37.8,55.94q-14.27,0-14.26-18.37,0-18.18,14.26-18.16A11.34,11.34,0,0,1,45,21.86a1.54,1.54,0,0,0,1.77.1L61.4,12.77a1.54,1.54,0,0,0,.49-2.12l-.11-.15A24.9,24.9,0,0,0,59,7.58Q50.53,0,37.53,0,21.17,0,10.45,11.1C3.49,18.34,0,27.19,0,37.75S3.52,57.22,10.57,64.45s16.14,11,27,11q13.08,0,21.57-7.76a26,26,0,0,0,6.08-8.1,1.53,1.53,0,0,0-.64-2L50.3,49.49a1.54,1.54,0,0,0-2,.48C45.5,53.93,42,55.94,37.8,55.94Z" transform="translate(0 0)" style="fill:url(#linear-gradient)"/><path id="Path_73136" data-name="Path 73136" d="M51.27,60.17a7.54,7.54,0,1,0,6.91,6.91A7.54,7.54,0,0,0,51.27,60.17Zm.81,2.32A5.36,5.36,0,0,0,50.4,72.94a5.37,5.37,0,0,1-1-10.63,5.29,5.29,0,0,1,2.76.17Z" transform="translate(0 0)" style="fill:#fcc400"/><g id="Group_29968" data-name="Group 29968"><path id="Path_73137" data-name="Path 73137" d="M150.65,28.1H145.3a2.13,2.13,0,0,0,0,4.24h5.34a2.13,2.13,0,0,0,0-4.24Z" transform="translate(0 0)" style="fill:url(#linear-gradient-2)"/><path id="Path_73138" data-name="Path 73138" d="M142.83,55.25H141a2.69,2.69,0,0,1-2.55-2.74,2.66,2.66,0,0,1,2.46-2.85h1.89a2.65,2.65,0,0,0,2.45-2.83v0a2.68,2.68,0,0,0-2.55-2.74h-12a2.67,2.67,0,0,1-2.41-2.8h0a2.65,2.65,0,0,1,2.47-2.8h11.6v0h1.16a2.65,2.65,0,0,0,2.47-2.8h0a2.65,2.65,0,0,0-2.47-2.8h-9.76a2.69,2.69,0,0,1-2.55-2.74,2.66,2.66,0,0,1,2.46-2.85h2.44l.42,0h8.8a2.65,2.65,0,0,0,2.47-2.8h0a2.65,2.65,0,0,0-2.47-2.8h-8.82a.6.6,0,0,0-.19,0H70.43a4.25,4.25,0,0,0-4,4.5V67.8a1,1,0,0,0,1,1.1H84.79V33.07a1.82,1.82,0,0,1,1.7-1.93h8a1.82,1.82,0,0,1,1.7,1.93V68.91h13.91V33.36a1.82,1.82,0,0,1,1.7-1.93h8a1.82,1.82,0,0,1,1.7,1.93V68.91h15.22a4.33,4.33,0,0,0,4.26-4.4V60.86h1.7a2.82,2.82,0,0,0,.06-5.61Z" transform="translate(0 0)" style="fill:url(#linear-gradient-3)"/><circle id="Ellipse_2181" data-name="Ellipse 2181" cx="147.31" cy="41.62" r="2.51" style="fill:url(#linear-gradient-4)"/></g><path id="Path_73139" data-name="Path 73139" d="M65.22,56.85V27.29c0-.08,0-.35-.48-.79a3.47,3.47,0,0,0-2.33-.91l-23.93-.17a8.53,8.53,0,0,0-5.94,2.82A9.62,9.62,0,0,0,31,31.74v1.91h5a1.83,1.83,0,0,0,1.81-1.85h0c0-.67.62-1.74,1.35-1.74H54.42a2.87,2.87,0,0,1,3,2.76v6l-.29.29H42c-8.39,0-13.62,6.31-13.62,14.7h0l-.15,11a3,3,0,0,0,3.11,3H42.76a8.45,8.45,0,0,1,16.9,0H64.2a1,1,0,0,0,1-1V56.84Zm-27,6h-5a.27.27,0,0,1,0-.54h5.06a.28.28,0,0,1,.29.27.27.27,0,0,1-.27.27h0Z" transform="translate(0 0)" style="fill:url(#linear-gradient-5)"/></g></svg>