<svg id="_2" data-name="2" xmlns="http://www.w3.org/2000/svg" viewBox="0 0 562.54 684.11"><path d="M530.89,567c-24.16-9-51.69-23.11-51.69-41.32V477.94c8.85-24.53,22.14-26.28,28.79-63.92,15.5-5.54,24.35-14.4,35.42-53.14,8.31-29.17-3.94-37-11.86-39.08.16-1.56.32-3.12.45-5,3-43.68,28.36-173.34-59.45-188.83-23.24-18.08-38-26.27-87.8-23.24-31.54,0-55.51,7-88.91-2.6-44.56,37.39-32.32,160.17-26.08,219.4-7.84,1.76-21.36,9-12.71,39.31,11.05,38.74,19.91,47.6,35.4,53.14,6.65,37.64,26.88,49.72,28.35,63.92v47.77c0,18.21-29.71,33.57-51.69,41.32-42.28,14.9-160.06,59-149.74,219.25H680.63C691,626,572.88,582.74,530.89,567Z" transform="translate(-118.73 -102.17)" style="fill:#fff"/></svg>