<svg id="Layer_1" data-name="Layer 1" xmlns="http://www.w3.org/2000/svg" viewBox="0 0 29.85 33"><circle cx="14.08" cy="8" r="8" style="fill:#fcc401"/><path d="M22.59,32.62l-.11-.14c-2.06-.17-2.51-.26-2.7-1l-.43-1.6c-.18-.69.13-1,1.85-2.22l0-.18C19.91,26,19.65,25.58,20,24.94l.86-1.44a1,1,0,0,1,.6-.45,6.56,6.56,0,0,1,2.27.16l.17-.12c.19-1.93.3-2.41.85-2.61l0-.48h-11s-9,2.13-8,14.93c0,0,0,1.07,3,1.07h15l-.93-.53C22.24,35.1,22.27,34.68,22.59,32.62Z" transform="translate(-5.73 -3)" style="fill:#fcc401"/><path d="M26.72,30.51a2.46,2.46,0,0,0,1.84.24,2.41,2.41,0,0,0,1.74-2.93,2.34,2.34,0,0,0-1.12-1.44,2.42,2.42,0,0,0-1.2-.32,2.35,2.35,0,0,0-.64.09,2.45,2.45,0,0,0-1.49,1.12,2.37,2.37,0,0,0-.25,1.8A2.34,2.34,0,0,0,26.72,30.51Z" transform="translate(-5.73 -3)" style="fill:#fcc401"/><path d="M26.46,34.17l.17-.14,1.05.14.13.16a15.35,15.35,0,0,0,1.29,1.59l1.63-.43a15.29,15.29,0,0,0,.28-2l0-.22.85-.64.2,0a11.49,11.49,0,0,0,2.09.21L35,31.44a13.92,13.92,0,0,0-1.24-1.59l-.14-.17.14-1,.17-.13a16.26,16.26,0,0,0,1.64-1.29l-.42-1.59a15,15,0,0,0-2-.25l-.22,0-.64-.83,0-.21a16,16,0,0,0,.24-2l-1.46-.82a14.38,14.38,0,0,0-1.64,1.24l-.16.14-1.05-.13-.13-.17A16.5,16.5,0,0,0,26.8,21l-1.63.43a16.92,16.92,0,0,0-.28,2l0,.22-.31.23-.69,11,.95.54A16.21,16.21,0,0,0,26.46,34.17ZM25,26.76a3.47,3.47,0,0,1,4.69-1.25,3.37,3.37,0,0,1-.86,6.2,3.48,3.48,0,0,1-.9.12,3.43,3.43,0,0,1-1.7-.45A3.34,3.34,0,0,1,25,26.76Z" transform="translate(-5.73 -3)" style="fill:#fcc401"/><path d="M24,24.26l-.2,0A11.49,11.49,0,0,0,21.73,24l-.84,1.43A14,14,0,0,0,22.13,27l.14.17-.14,1-.17.12a13.84,13.84,0,0,0-1.64,1.29l.42,1.59a14.76,14.76,0,0,0,2,.25l.22,0,.64.82,0,.22a16,16,0,0,0-.24,2l.5.29.69-11Z" transform="translate(-5.73 -3)" style="fill:#fcc401"/></svg>