<svg id="Layer_1" data-name="Layer 1" xmlns="http://www.w3.org/2000/svg" viewBox="0 0 18 15.75"><title>arrow-left-en</title><g id="arrow-left-short"><path id="Path_72976" data-name="Path 72976" d="M8.67.33a1.12,1.12,0,0,1,0,1.59h0l-6,6,6,6a1.13,1.13,0,0,1-1.59,1.59L.33,8.68a1.12,1.12,0,0,1,0-1.59h0L7.08.33a1.12,1.12,0,0,1,1.59,0h0Z" transform="translate(0 0)" style="fill:#fff"/><path id="Path_72977" data-name="Path 72977" d="M1.13,7.88A1.12,1.12,0,0,1,2.25,6.75H16.88a1.13,1.13,0,0,1,0,2.25H2.25A1.12,1.12,0,0,1,1.13,7.88Z" transform="translate(0 0)" style="fill:#fff"/></g></svg>