<svg id="Layer_1" data-name="Layer 1" xmlns="http://www.w3.org/2000/svg" viewBox="0 0 18 15.75"><title>arrow-left-ar</title><g id="arrow-left-short"><path id="Path_72976" data-name="Path 72976" d="M9.33,15.42a1.12,1.12,0,0,1,0-1.59h0l6-6-6-6A1.13,1.13,0,1,1,10.92.33l6.75,6.75a1.12,1.12,0,0,1,0,1.59h0l-6.75,6.75a1.12,1.12,0,0,1-1.59,0h0Z" transform="translate(0 0)" style="fill:#fff"/><path id="Path_72977" data-name="Path 72977" d="M16.88,7.88A1.12,1.12,0,0,1,15.75,9H1.13a1.13,1.13,0,0,1,0-2.25H15.75A1.12,1.12,0,0,1,16.88,7.88Z" transform="translate(0 0)" style="fill:#fff"/></g></svg>