<svg id="Layer_1" data-name="Layer 1" xmlns="http://www.w3.org/2000/svg" viewBox="0 0 30 32.73"><g id="attached-attach-svgrepo-com"><g id="Group_31654" data-name="Group 31654"><path id="Path_73181" data-name="Path 73181" d="M26.09,11.88l-1.36-1.36L13.45,21.8a3.58,3.58,0,0,0,5.07,5.06L33.67,11.71a5.5,5.5,0,0,0-7.78-7.79L7.46,22.35A7.43,7.43,0,0,0,18,32.86L32.53,18.31,31.17,17,16.62,31.5a5.52,5.52,0,0,1-7.8-7.8h0L27.23,5.28a3.59,3.59,0,1,1,5.08,5.08L17.15,25.51a1.66,1.66,0,0,1-2.34-2.35Z" transform="translate(-5.29 -2.31)"/></g></g></svg>