<svg id="Layer_1" data-name="Layer 1" xmlns="http://www.w3.org/2000/svg" viewBox="0 0 158.65 107.52"><g id="Group_30369" data-name="Group 30369"><path id="Union_1" data-name="Union 1" d="M122.76,111.07H38.16A31,31,0,0,1,8.59,78.75,31.41,31.41,0,0,1,34.87,46.68v-.19A33,33,0,0,1,68.55,14.17h0A34.17,34.17,0,0,1,94.57,26a35.34,35.34,0,0,1,8.45-1,33.09,33.09,0,0,1,33.7,30.72,29.11,29.11,0,0,1,14.82,25.28A28.3,28.3,0,0,1,125.17,111l-.88,0Z" transform="translate(-5.31 -6.81)" style="fill:none;stroke:#fcc400;stroke-width:6.5038018915535645px"/><g id="Group_30319" data-name="Group 30319"><path id="Path_72982" data-name="Path 72982" d="M118.09,53.31A44.88,44.88,0,0,1,161.31,6.83c.88,0,1.75,0,2.62,0" transform="translate(-5.31 -6.81)" style="fill:#fcc400"/><path id="Path_72984" data-name="Path 72984" d="M163.93,6.82a44.88,44.88,0,0,1-43.22,46.47c-.87,0-1.75,0-2.62,0" transform="translate(-5.31 -6.81)" style="fill:#fcc400"/></g><g id="Group_31458" data-name="Group 31458"><g id="co" style="isolation:isolate"><text transform="translate(43.36 81.8)" style="isolation:isolate;font-size:58.53421401977539px;fill:#fcc400;font-family:Roboto-Regular, Roboto">co</text></g><g id="_2" data-name=" 2" style="isolation:isolate"><text transform="translate(105.48 88.79)" style="isolation:isolate;font-size:19.51140594482422px;fill:#fcc400;font-family:Roboto-Regular, Roboto">2</text></g></g></g></svg>