<svg id="Layer_1" data-name="Layer 1" xmlns="http://www.w3.org/2000/svg" viewBox="0 0 29.7 21.99"><title>co2fingerprint</title><g id="Group_30369" data-name="Group 30369"><path id="Union_1" data-name="Union 1" d="M22,21.23H6.26c-3,0-5.51-3.06-5.51-6.83,0-3.51,2.14-6.41,4.9-6.78v0A6.57,6.57,0,0,1,11.92.75a6.08,6.08,0,0,1,4.85,2.49A5.81,5.81,0,0,1,18.35,3a6.54,6.54,0,0,1,6.27,6.49,6.32,6.32,0,0,1,2.76,5.34c0,3.4-2,6.37-5.07,6.37Z" transform="translate(0 0)" style="fill:none;stroke:#45b00e;stroke-width:1.5px"/><g id="Group_30319" data-name="Group 30319"><path id="Path_72982" data-name="Path 72982" d="M21.16,10.47S20.79,2.29,29.7,1.8" transform="translate(0 0)" style="fill:#45b00e"/><path id="Path_72984" data-name="Path 72984" d="M29.7,1.8s.36,8.18-8.54,8.66" transform="translate(0 0)" style="fill:#45b00e"/></g><g id="co" style="isolation:isolate"><text transform="translate(6.28 15.24)" style="isolation:isolate;font-size:13px;fill:#45b00e;font-family:ArialMT, Arial">co</text></g><g id="_2" data-name=" 2" style="isolation:isolate"><text transform="translate(18.4 18.8)" style="isolation:isolate;font-size:5px;fill:#45b00e;font-family:ArialMT, Arial">2</text></g></g></svg>