<svg id="Layer_1" data-name="Layer 1" xmlns="http://www.w3.org/2000/svg" viewBox="0 0 18.54 17.41"><title>commodity_icon</title><path id="_Compound_Path_" data-name="&lt;Compound Path&gt;" d="M18,12.86H17.4V7a.57.57,0,0,0-.57-.57H13.62V.57A.57.57,0,0,0,13.05,0H5.49a.57.57,0,0,0-.57.57V6.43H1.7A.57.57,0,0,0,1.13,7v5.86H.57a.57.57,0,0,0-.57.57v3.41a.57.57,0,0,0,.57.57H2.84a.57.57,0,0,0,.57-.57h0v-.57H7.57v.57a.57.57,0,0,0,.57.57h2.27a.57.57,0,0,0,.57-.57h0v-.57h4.16v.57a.57.57,0,0,0,.57.57H18a.57.57,0,0,0,.57-.57h0V13.43a.57.57,0,0,0-.57-.57Zm-1.7-5.3v5.3H9.84V7.56ZM6.05,1.14h6.43v5.3H6.05ZM2.27,7.57H8.7v5.3H2.27Zm15.14,8.7H16.27V15.7a.57.57,0,0,0-.57-.57H10.4a.57.57,0,0,0-.57.57h0v.57H8.7V15.7a.57.57,0,0,0-.57-.57H2.83a.57.57,0,0,0-.57.57h0v.57H1.13V14H17.41Z" style="fill:#fcc"/></svg>