<svg id="Layer_1" data-name="Layer 1" xmlns="http://www.w3.org/2000/svg" viewBox="0 0 36.91 22.95"><path d="M20.69,20.19H3.55a2.22,2.22,0,0,0-2.21,2.22v8.92a2.21,2.21,0,0,0,2.21,2.22H20.69a2.22,2.22,0,0,0,2.22-2.22V22.41A2.23,2.23,0,0,0,20.69,20.19Zm1,11.14a1,1,0,0,1-1,1H3.55a1,1,0,0,1-1-1V26.94H21.68Zm0-5.61H2.56V24.07H6.24a.61.61,0,0,0,0-1.22H2.56v-.44a1,1,0,0,1,1-1H20.69a1,1,0,0,1,1,1v.44H8.29a.61.61,0,0,0,0,1.22H21.68Z" transform="translate(-1.21 -10.72)" style="stroke:#000;stroke-miterlimit:10;stroke-width:0.25px"/><path d="M37.39,10.85H9.16a.66.66,0,0,0-.7.61v7.17a.66.66,0,0,0,.66.65.68.68,0,0,0,.73-.59V15.81a4.74,4.74,0,0,0,4.25-3.74H33a4.4,4.4,0,0,0,3.74,3.74v5.12A4.41,4.41,0,0,0,33,24.67H24.47a.62.62,0,0,0,0,1.23H37.39a.61.61,0,0,0,.61-.61V11.46A.61.61,0,0,0,37.39,10.85ZM9.86,14.57v-2.5h2.83A3.41,3.41,0,0,1,9.86,14.57Zm26.91,10.1H34.28a3.16,3.16,0,0,1,2.49-2.49Zm0-10.1a3.17,3.17,0,0,1-2.49-2.49h2.49Z" transform="translate(-1.21 -10.72)" style="stroke:#000;stroke-miterlimit:10;stroke-width:0.25px"/><path d="M24.36,21.42a.6.6,0,0,0-.51.7.61.61,0,0,0,.7.52h0a4.76,4.76,0,0,0,4.3-4.26C28.88,16,26.35,14,23.23,14s-5.65,2-5.65,4.38a1.77,1.77,0,0,0,0,.32.61.61,0,0,0,1.22-.11c0-.07,0-.14,0-.21,0-1.73,2-3.15,4.42-3.15s4.43,1.41,4.43,3.15C27.66,19.8,26.3,21.05,24.36,21.42Z" transform="translate(-1.21 -10.72)" style="stroke:#000;stroke-miterlimit:10;stroke-width:0.25px"/><path d="M4.12,29.42H8a.6.6,0,0,0,.64-.58.62.62,0,0,0-.58-.65h-4a.62.62,0,0,0-.58.65A.62.62,0,0,0,4.12,29.42Z" transform="translate(-1.21 -10.72)" style="stroke:#000;stroke-miterlimit:10;stroke-width:0.25px"/></svg>