<svg id="Layer_1" data-name="Layer 1" xmlns="http://www.w3.org/2000/svg" viewBox="0 0 45.04 36.24"><rect y="32.49" width="43.79" height="3.75" rx="0.9" style="fill:#fcc401"/><path d="M.05,0H23.8a0,0,0,0,1,0,0V4.09a.9.9,0,0,1-.9.9H1a.9.9,0,0,1-.9-.9V0a0,0,0,0,1,0,0Z" style="fill:#fcc401"/><path d="M4.17,7.64V33.89H22.92V7.64ZM20.1,25.73a1,1,0,0,1-1,1H8a1,1,0,0,1-1-1V15.8a1,1,0,0,1,1-1H19.13a1,1,0,0,1,1,1Z" transform="translate(-1.67 -2.65)" style="fill:#fcc401"/><ellipse cx="11.87" cy="18.82" rx="1.87" ry="1.95" style="fill:#fcc401"/><path d="M14.58,23.47H12.51A1.5,1.5,0,0,0,11,25v1.4h5V25A1.49,1.49,0,0,0,14.58,23.47Z" transform="translate(-1.67 -2.65)" style="fill:#fcc401"/><line x1="6.87" y1="26.87" x2="16.87" y2="26.87" style="fill:#fcc401"/><polygon points="26.33 17.5 23.11 22.5 26.5 22.5 29.72 17.5 26.33 17.5" style="fill:#f7bc03"/><polygon points="31.98 17.5 28.76 22.5 32.75 22.5 35.97 17.5 31.98 17.5" style="fill:#f7bc03"/><polygon points="21.3 17.5 21.3 21.81 24.08 17.5 21.3 17.5" style="fill:#f7bc03"/><polygon points="21.3 22.5 21.3 22.5 21.3 22.5 21.3 22.5" style="fill:#f7bc03"/><path d="M45.83,20.63l-2.9,4.51h1.28a2.3,2.3,0,0,0,2.5-2v-1A1.83,1.83,0,0,0,45.83,20.63Z" transform="translate(-1.67 -2.65)" style="fill:#f7bc03"/><polygon points="38.23 17.5 35.01 22.5 39 22.5 42.22 17.5 38.23 17.5" style="fill:#f7bc03"/></svg>