<svg id="Layer_1" data-name="Layer 1" xmlns="http://www.w3.org/2000/svg" viewBox="0 0 74.94 76.24"><g id="route-svgrepo-com"><path id="Path_73020" data-name="Path 73020" d="M33.49,51.82a14.14,14.14,0,0,0-21.66,0,18.59,18.59,0,0,0,0,24L22.66,88.07,33.49,75.83A18.59,18.59,0,0,0,33.49,51.82Zm-1.9,22.33L22.66,84.23,13.73,74.14a16,16,0,0,1,0-20.64,11.83,11.83,0,0,1,8.93-4.19,11.86,11.86,0,0,1,8.93,4.2,16,16,0,0,1,0,20.63Z" transform="translate(-7.43 -15)" style="fill:#fcc400"/><path id="Path_73021" data-name="Path 73021" d="M68.72,46.14l8.22-9.25a14,14,0,0,0,0-18.06,10.7,10.7,0,0,0-16.44,0,14,14,0,0,0,0,18.06ZM62.41,20.51A8.22,8.22,0,0,1,74,19.46a8.68,8.68,0,0,1,1,1.05A11.36,11.36,0,0,1,75,35.2l-6.31,7.11L62.41,35.2a11.34,11.34,0,0,1,0-14.69Z" transform="translate(-7.43 -15)" style="fill:#fcc400"/><path id="Path_73022" data-name="Path 73022" d="M73.63,84.26a1.26,1.26,0,0,0-1.52.95h0A4.48,4.48,0,0,1,71.26,87a1.27,1.27,0,0,0,2,1.57,7.07,7.07,0,0,0,1.32-2.78A1.28,1.28,0,0,0,73.63,84.26Z" transform="translate(-7.43 -15)" style="fill:#fcc400"/><path id="Path_73023" data-name="Path 73023" d="M47.43,54.39a4.57,4.57,0,0,1-1.59-.3,1.27,1.27,0,0,0-.91,2.37,7,7,0,0,0,2.49.46h.46a1.27,1.27,0,0,0,0-2.54Z" transform="translate(-7.43 -15)" style="fill:#fcc400"/><path id="Path_73024" data-name="Path 73024" d="M44.42,46.35a1.24,1.24,0,0,0,.67-.19,4.5,4.5,0,0,1,1.84-.64A1.27,1.27,0,0,0,46.66,43a6.92,6.92,0,0,0-2.92,1,1.27,1.27,0,0,0,.68,2.35Z" transform="translate(-7.43 -15)" style="fill:#fcc400"/><path id="Path_73025" data-name="Path 73025" d="M29.74,88.69H27.19a1.28,1.28,0,0,0,0,2.55h2.55a1.28,1.28,0,0,0,0-2.55Z" transform="translate(-7.43 -15)" style="fill:#fcc400"/><path id="Path_73026" data-name="Path 73026" d="M52.51,65.82h-.32A1.27,1.27,0,0,0,51,67.12a1.26,1.26,0,0,0,1.29,1.24h2.55a1.27,1.27,0,0,0,0-2.54Z" transform="translate(-7.43 -15)" style="fill:#fcc400"/><path id="Path_73027" data-name="Path 73027" d="M51.88,45.5h2.54a1.28,1.28,0,0,0,0-2.55H51.88a1.28,1.28,0,0,0,0,2.55Z" transform="translate(-7.43 -15)" style="fill:#fcc400"/><path id="Path_73028" data-name="Path 73028" d="M67.5,65.82a1.28,1.28,0,0,0,0,2.55H70a1.28,1.28,0,0,0,0-2.55Z" transform="translate(-7.43 -15)" style="fill:#fcc400"/><path id="Path_73029" data-name="Path 73029" d="M72,55.66a1.27,1.27,0,0,0-1.27-1.27H68.21a1.27,1.27,0,1,0,0,2.54h2.54A1.26,1.26,0,0,0,72,55.68Z" transform="translate(-7.43 -15)" style="fill:#fcc400"/><path id="Path_73030" data-name="Path 73030" d="M59.88,68.37h2.54a1.28,1.28,0,0,0,0-2.55H59.88a1.28,1.28,0,0,0,0,2.55Z" transform="translate(-7.43 -15)" style="fill:#fcc400"/><path id="Path_73031" data-name="Path 73031" d="M62,45.5A1.28,1.28,0,0,0,62,43H59.5a1.28,1.28,0,0,0,0,2.55Z" transform="translate(-7.43 -15)" style="fill:#fcc400"/><path id="Path_73032" data-name="Path 73032" d="M53,54.39a1.27,1.27,0,1,0,0,2.54H55.5a1.27,1.27,0,1,0,0-2.54Z" transform="translate(-7.43 -15)" style="fill:#fcc400"/><path id="Path_73033" data-name="Path 73033" d="M64.4,55.66a1.27,1.27,0,0,0-1.27-1.27H60.58a1.27,1.27,0,1,0,0,2.54h2.54a1.26,1.26,0,0,0,1.28-1.25Z" transform="translate(-7.43 -15)" style="fill:#fcc400"/><path id="Path_73034" data-name="Path 73034" d="M82.28,60.27a1.27,1.27,0,1,0-2.5.41,5.36,5.36,0,0,1,0,.7,4.45,4.45,0,0,1-.18,1.25,1.28,1.28,0,0,0,.86,1.58h0a1.49,1.49,0,0,0,.36.05,1.28,1.28,0,0,0,1.22-.91,7.25,7.25,0,0,0,.28-2A7,7,0,0,0,82.28,60.27Z" transform="translate(-7.43 -15)" style="fill:#fcc400"/><path id="Path_73035" data-name="Path 73035" d="M60.23,88.69H57.69a1.28,1.28,0,0,0,0,2.55h2.54a1.28,1.28,0,0,0,0-2.55Z" transform="translate(-7.43 -15)" style="fill:#fcc400"/><path id="Path_73036" data-name="Path 73036" d="M52.61,88.69H50.06a1.28,1.28,0,0,0,0,2.55h2.55a1.28,1.28,0,0,0,0-2.55Z" transform="translate(-7.43 -15)" style="fill:#fcc400"/><path id="Path_73037" data-name="Path 73037" d="M66.58,78.53a1.27,1.27,0,0,0-1.27-1.27H62.77a1.27,1.27,0,0,0,0,2.54h2.54a1.27,1.27,0,0,0,1.27-1.27Z" transform="translate(-7.43 -15)" style="fill:#fcc400"/><path id="Path_73038" data-name="Path 73038" d="M59,78.53a1.27,1.27,0,0,0-1.27-1.27H55.14a1.27,1.27,0,0,0,0,2.54h2.55A1.27,1.27,0,0,0,59,78.53Z" transform="translate(-7.43 -15)" style="fill:#fcc400"/><path id="Path_73039" data-name="Path 73039" d="M67.76,88.69H65.31a1.28,1.28,0,0,0,0,2.55H67.8l0-1.27v1.27A1.22,1.22,0,0,0,69.06,90v0A1.31,1.31,0,0,0,67.76,88.69Z" transform="translate(-7.43 -15)" style="fill:#fcc400"/><path id="Path_73040" data-name="Path 73040" d="M72.25,82a1.25,1.25,0,0,0,1.27-1.26,1.19,1.19,0,0,0-.27-.79A6.89,6.89,0,0,0,70.87,78a1.27,1.27,0,1,0-1.14,2.27,4.5,4.5,0,0,1,1.53,1.24A1.22,1.22,0,0,0,72.25,82Z" transform="translate(-7.43 -15)" style="fill:#fcc400"/><path id="Path_73041" data-name="Path 73041" d="M77.1,65.48a4.23,4.23,0,0,1-1.72.34h-.26a1.28,1.28,0,0,0,0,2.55h.28a7,7,0,0,0,2.7-.55,1.27,1.27,0,1,0-1-2.34Z" transform="translate(-7.43 -15)" style="fill:#fcc400"/><path id="Path_73042" data-name="Path 73042" d="M42.4,52.94a1.29,1.29,0,0,0,.81-1.61A4.3,4.3,0,0,1,43,50a5.46,5.46,0,0,1,0-.57,1.27,1.27,0,1,0-2.52-.3h0a8.48,8.48,0,0,0-.06.88,7,7,0,0,0,.35,2.18A1.29,1.29,0,0,0,42,53,1.8,1.8,0,0,0,42.4,52.94Z" transform="translate(-7.43 -15)" style="fill:#fcc400"/><path id="Path_73043" data-name="Path 73043" d="M37.36,88.69H34.82a1.28,1.28,0,0,0,0,2.55h2.54a1.28,1.28,0,0,0,0-2.55Z" transform="translate(-7.43 -15)" style="fill:#fcc400"/><path id="Path_73044" data-name="Path 73044" d="M50.14,79.28a1.27,1.27,0,0,0,.53-2.43,4.36,4.36,0,0,1-1.56-1.19,1.27,1.27,0,0,0-2,1.63,7,7,0,0,0,2.44,1.87A1.22,1.22,0,0,0,50.14,79.28Z" transform="translate(-7.43 -15)" style="fill:#fcc400"/><path id="Path_73045" data-name="Path 73045" d="M78.88,55.33a6.79,6.79,0,0,0-2.94-.91,1.27,1.27,0,0,0-1.37,1.16A1.28,1.28,0,0,0,75.74,57a4.4,4.4,0,0,1,1.87.58,1.27,1.27,0,1,0,1.27-2.2Z" transform="translate(-7.43 -15)" style="fill:#fcc400"/><path id="Path_73046" data-name="Path 73046" d="M45,88.69H42.44a1.28,1.28,0,0,0,0,2.55H45a1.28,1.28,0,0,0,0-2.55Z" transform="translate(-7.43 -15)" style="fill:#fcc400"/><path id="Path_73047" data-name="Path 73047" d="M48.15,72a4.36,4.36,0,0,1,.78-1.79,1.27,1.27,0,1,0-2-1.52,7,7,0,0,0-1.24,2.82,1.27,1.27,0,0,0,2.5.49h0Z" transform="translate(-7.43 -15)" style="fill:#fcc400"/><path id="Path_73048" data-name="Path 73048" d="M69,34.06a7,7,0,1,0-7-7h0A7,7,0,0,0,69,34.06Zm0-11.43a4.45,4.45,0,1,1-4.45,4.46A4.45,4.45,0,0,1,69,22.63Z" transform="translate(-7.43 -15)" style="fill:#fcc400"/><path id="Path_73049" data-name="Path 73049" d="M22.67,54.39A7.61,7.61,0,1,0,30.28,62,7.61,7.61,0,0,0,22.67,54.39Zm0,12.71A5.09,5.09,0,1,1,27.75,62h0A5.1,5.1,0,0,1,22.67,67.1Z" transform="translate(-7.43 -15)" style="fill:#fcc400"/></g></svg>