<svg id="Layer_1" data-name="Layer 1" xmlns="http://www.w3.org/2000/svg" viewBox="0 0 168.81 221.27"><path id="location-pin-svgrepo-com" d="M94.82,17.62A78.67,78.67,0,0,0,16.15,96.28a77.5,77.5,0,0,0,14.94,45.65c.17.31.2.65.38.94L84,221.54a13.11,13.11,0,0,0,21.83,0l52.38-78.68a9.25,9.25,0,0,0,.38-.94,77.5,77.5,0,0,0,14.94-45.65A78.67,78.67,0,0,0,94.82,17.62Zm0,104.88A26.22,26.22,0,1,1,121,96.28,26.22,26.22,0,0,1,94.82,122.5Z" transform="translate(-10.41 -11.87)" style="fill:none;stroke:#fcc400;stroke-width:11.49016153153002px"/></svg>