<svg id="Layer_1" data-name="Layer 1" xmlns="http://www.w3.org/2000/svg" viewBox="0 0 33.98 31.61"><title>driver</title><g id="Group_12544" data-name="Group 12544"><path id="Path_23533" data-name="Path 23533" d="M25.49,28.49c0,2.35.56,2.89,2.82,2.89H30.7v.23H4.27a10.16,10.16,0,0,1-1.6-.25l0-.33h3c2.06,0,2.54-.41,2.87-2.52a19.53,19.53,0,0,0,2.19,0,1.27,1.27,0,0,0,.87-.57c.1-.2-.09-.67-.29-.88-.53-.56-1.15-1-1.72-1.56a3,3,0,0,1-1.3-1.91,1.62,1.62,0,0,0-1.72-1.29c-.67,0-1.34,0-2,0,1.33-3.7,7.38-7.05,12.52-7s11.18,3.54,12.53,7.39a9.69,9.69,0,0,0-2.22,0,2.54,2.54,0,0,0-1.62,1,6,6,0,0,1-1.63,2c-.62.56-1.27,1.09-1.86,1.68a.77.77,0,0,0-.19.68,1,1,0,0,0,.63.51C23.65,28.53,24.54,28.49,25.49,28.49Zm-16-7.34c1.4,1.25,2.75,2.41,4.07,3.63a1.25,1.25,0,0,0,1.29.27,7,7,0,0,1,3.33-.18,2.49,2.49,0,0,0,3-.8c.55-.58,1.19-1.07,1.79-1.61l1.48-1.33c-4.12-3.67-11-3.65-15,0Z" transform="translate(0 0)" style="fill:#ffc400"/><path id="Path_23534" data-name="Path 23534" d="M23.92,7.19A7,7,0,1,1,17,0h0A7,7,0,0,1,23.92,7.19Z" transform="translate(0 0)" style="fill:#ffc400"/><path id="Path_23535" data-name="Path 23535" d="M30.54,28H28c-1.05,0-1.53-.32-1.55-1S26.9,25.92,28,25.9l2.32,0s.09-.07.27-.21H27.71c-.71,0-1.25-.23-1.27-1s.53-1.1,1.29-1.09c1.45,0,2.91,0,4.36,0a1.38,1.38,0,0,1,1.48,1,7.15,7.15,0,0,1-.07,5,1.36,1.36,0,0,1-1.44.93c-1.42,0-2.85,0-4.27,0-.74,0-1.3-.21-1.36-1s.44-1.08,1.39-1.1,1.81,0,2.72,0Z" transform="translate(0 0)" style="fill:#ffc400"/><path id="Path_23536" data-name="Path 23536" d="M3.46,27.94H6c1.05,0,1.53.34,1.54,1.05s-.48,1.08-1.5,1.08c-1.36,0-2.72,0-4.08,0A1.44,1.44,0,0,1,.44,29,7.33,7.33,0,0,1,.36,24.3a1.45,1.45,0,0,1,1.58-1.14c1.42,0,2.84,0,4.27,0,.74,0,1.31.18,1.35,1s-.44,1.06-1.4,1.07H3.59v.25H6c1.06,0,1.53.34,1.53,1.05s-.48,1.08-1.5,1.08H3.5Z" transform="translate(0 0)" style="fill:#ffc400"/><path id="Path_23537" data-name="Path 23537" d="M2.31,22.1a15.32,15.32,0,0,1,0-2.29,1.53,1.53,0,0,1,.73-1,1.67,1.67,0,0,1,1.28.12.71.71,0,0,1,.21,1.21c-.43.52-.76,1.12-1.19,1.64a3.89,3.89,0,0,1-.85.6Z" transform="translate(0 0)" style="fill:#ffc400"/><path id="Path_23538" data-name="Path 23538" d="M31.65,22.69c-.31-.12-.56-.15-.66-.28-.57-.8-1.12-1.61-1.64-2.44a.57.57,0,0,1,.08-.54c.4-.18.88-.47,1.23-.36a1.51,1.51,0,0,1,.94.95A16.62,16.62,0,0,1,31.65,22.69Z" transform="translate(0 0)" style="fill:#ffc400"/></g></svg>