<svg id="Layer_1" data-name="Layer 1" xmlns="http://www.w3.org/2000/svg" viewBox="0 0 36.99 34.73"><path d="M37.56,30.07H36.42V18.37a1.12,1.12,0,0,0-1.13-1.13H28.87V5.53A1.13,1.13,0,0,0,27.74,4.4H12.64a1.14,1.14,0,0,0-1.13,1.13V17.24H5.09A1.13,1.13,0,0,0,4,18.37v11.7H2.83A1.14,1.14,0,0,0,1.69,31.2V38a1.14,1.14,0,0,0,1.14,1.13H7.36A1.14,1.14,0,0,0,8.49,38h0V36.86h8.3V38a1.14,1.14,0,0,0,1.14,1.13h4.53A1.14,1.14,0,0,0,23.59,38h0V36.86h8.3V38A1.14,1.14,0,0,0,33,39.13h4.52A1.14,1.14,0,0,0,38.69,38h0V31.2a1.14,1.14,0,0,0-1.13-1.13ZM34.16,19.5V30.07H21.32V19.5ZM13.77,6.67H26.61V17.24H13.77ZM6.22,19.5H19.06V30.07H6.22Zm30.2,17.36H34.16V35.73A1.14,1.14,0,0,0,33,34.6H22.46a1.14,1.14,0,0,0-1.14,1.13h0v1.13H19.06V35.73a1.14,1.14,0,0,0-1.13-1.13H7.36a1.14,1.14,0,0,0-1.14,1.13h0v1.13H4V32.34H36.42Z" transform="translate(-1.69 -4.4)" style="fill:#221f20"/></svg>