<svg id="file-document-svgrepo-com" xmlns="http://www.w3.org/2000/svg" viewBox="0 0 24.86 24.86"><title>instruction</title><g id="Group_31036" data-name="Group 31036"><g id="Group_31035" data-name="Group 31035"><path id="Path_73006" data-name="Path 73006" d="M24.46,0H23.41a.4.4,0,0,0,0,.79h.66V24.07h-.66a.4.4,0,0,0,0,.79h1.06a.4.4,0,0,0,.4-.4V.4a.4.4,0,0,0-.4-.4Z" transform="translate(0 0)" style="fill:#fcc400"/></g></g><g id="Group_31038" data-name="Group 31038"><g id="Group_31037" data-name="Group 31037"><path id="Path_73007" data-name="Path 73007" d="M19.17,0H.4A.4.4,0,0,0,0,.4V24.46a.4.4,0,0,0,.22.35c.08,0,.08,0,.69,0H12.3a.4.4,0,0,0,0-.79H.79V.79h18v18H13.88a.4.4,0,0,0-.4.4v5.29a.4.4,0,0,0,.68.28l5.29-5.29a.4.4,0,0,0,.11-.28V.4A.4.4,0,0,0,19.17,0ZM14.28,23.5V19.57h3.93Z" transform="translate(0 0)" style="fill:#fcc400"/></g></g><g id="Group_31040" data-name="Group 31040"><g id="Group_31039" data-name="Group 31039"><path id="Path_73008" data-name="Path 73008" d="M21.82,0H20.76a.4.4,0,0,0,0,.79h.66V24.07H16.09a.4.4,0,0,0,0,.79h5.72a.4.4,0,0,0,.4-.4V.4A.4.4,0,0,0,21.82,0Z" transform="translate(0 0)" style="fill:#fcc400"/></g></g><g id="Group_31042" data-name="Group 31042"><g id="Group_31041" data-name="Group 31041"><path id="Path_73009" data-name="Path 73009" d="M15,9.92H4.6a.4.4,0,0,0-.11.79H15a.4.4,0,0,0,.11-.79Z" transform="translate(0 0)" style="fill:#fcc400"/></g></g><g id="Group_31044" data-name="Group 31044"><g id="Group_31043" data-name="Group 31043"><path id="Path_73010" data-name="Path 73010" d="M15,7.8H4.6a.4.4,0,0,0-.11.79H15a.4.4,0,0,0,.11-.79Z" transform="translate(0 0)" style="fill:#fcc400"/></g></g><g id="Group_31046" data-name="Group 31046"><g id="Group_31045" data-name="Group 31045"><path id="Path_73011" data-name="Path 73011" d="M15,5.69H4.6a.4.4,0,0,0-.11.79H15a.4.4,0,1,0,.11-.79Z" transform="translate(0 0)" style="fill:#fcc400"/></g></g><g id="Group_31048" data-name="Group 31048"><g id="Group_31047" data-name="Group 31047"><path id="Path_73012" data-name="Path 73012" d="M15,12H4.6a.4.4,0,0,0-.11.79H15a.4.4,0,0,0,.11-.79Z" transform="translate(0 0)" style="fill:#fcc400"/></g></g><g id="Group_31050" data-name="Group 31050"><g id="Group_31049" data-name="Group 31049"><path id="Path_73013" data-name="Path 73013" d="M11,14.14H4.6a.4.4,0,1,0-.11.79H11a.4.4,0,1,0,.11-.79Z" transform="translate(0 0)" style="fill:#fcc400"/></g></g></svg>