<svg id="Layer_1" data-name="Layer 1" xmlns="http://www.w3.org/2000/svg" viewBox="0 0 25 25"><title>listalt</title><path id="listalt" d="M21.87,25H3.12a3,3,0,0,1-2.21-.92A3,3,0,0,1,0,21.88V3.13A3,3,0,0,1,.92.92,3,3,0,0,1,3.13,0H21.87a3,3,0,0,1,2.21.92A3,3,0,0,1,25,3.13V21.88A3.13,3.13,0,0,1,21.87,25ZM23.44,6.25a1.58,1.58,0,0,0-1.56-1.56H3.13A1.5,1.5,0,0,0,2,5.15a1.5,1.5,0,0,0-.46,1.1V21.87A1.49,1.49,0,0,0,2,23a1.52,1.52,0,0,0,1.1.45H21.87A1.52,1.52,0,0,0,23,23a1.49,1.49,0,0,0,.46-1.11V6.25ZM21.09,21.87H8.59a.78.78,0,0,1,0-1.56h12.5a.78.78,0,0,1,0,1.56Zm0-6.25H8.59a.78.78,0,0,1,0-1.56h12.5a.78.78,0,0,1,0,1.56Zm0-6.25H8.59a.78.78,0,0,1,0-1.56h12.5a.78.78,0,0,1,0,1.56ZM5.47,21.87H3.91a.79.79,0,0,1-.78-.78V19.53a.79.79,0,0,1,.78-.78H5.47a.79.79,0,0,1,.78.78v1.56A.79.79,0,0,1,5.47,21.87Zm0-6.25H3.91a.79.79,0,0,1-.78-.78V13.28a.79.79,0,0,1,.78-.78H5.47a.79.79,0,0,1,.78.78v1.56a.79.79,0,0,1-.78.78Zm0-6.25H3.91a.79.79,0,0,1-.78-.78V7a.79.79,0,0,1,.78-.78H5.47A.79.79,0,0,1,6.25,7V8.59a.79.79,0,0,1-.78.78Z" transform="translate(0 0)" style="fill:#fff"/></svg>