<svg id="Layer_1" data-name="Layer 1" xmlns="http://www.w3.org/2000/svg" viewBox="0 0 27.14 36.18"><path id="location-pin-svgrepo-com" d="M18.32,1.67a14,14,0,0,0-13.7,13.8C4.62,23.31,11.9,31.32,16.8,37a2.79,2.79,0,0,0,1.79.9h.08a2.76,2.76,0,0,0,1.78-.9c4.6-5.28,11.31-14,11.31-21.49S26.85,1.67,18.32,1.67Zm.45,33.77-.15.12-.15-.12-.59-.68c-4.64-5.33-11-12.62-11-19.29A11.64,11.64,0,0,1,18.32,3.93C26,3.93,29.5,9.73,29.5,15.47c0,5.06-3.61,11.78-10.73,20ZM18.23,8.52A6.79,6.79,0,1,0,25,15.31h0A6.79,6.79,0,0,0,18.23,8.52Zm0,11.31a4.62,4.62,0,0,1-4.58-4.57,4.53,4.53,0,1,1,4.58,4.57Z" transform="translate(-4.62 -1.67)"/></svg>