<svg id="Layer_1" data-name="Layer 1" xmlns="http://www.w3.org/2000/svg" viewBox="0 0 19.81 25.22"><title>location</title><g id="location"><path id="Path_23584" data-name="Path 23584" d="M9.91,14.41a4.5,4.5,0,1,1,4.5-4.5,4.5,4.5,0,0,1-4.5,4.5Zm0-7.2a2.7,2.7,0,1,0,2.7,2.7,2.7,2.7,0,0,0-2.7-2.7Z" transform="translate(0.01)" style="fill:#fff"/><path id="Path_23585" data-name="Path 23585" d="M9.91,25.22l-7.6-9L2,15.85A9.81,9.81,0,0,1,0,9.91a9.91,9.91,0,0,1,19.81,0,9.8,9.8,0,0,1-2,5.94h0l-.31.4ZM3.43,14.76l.26.34,6.22,7.33,6.22-7.34.25-.33A8,8,0,0,0,18,9.9,8.1,8.1,0,0,0,1.8,9.9a8,8,0,0,0,1.63,4.86Z" transform="translate(0.01)" style="fill:#fff"/></g></svg>