<svg id="Layer_1" data-name="Layer 1" xmlns="http://www.w3.org/2000/svg" viewBox="0 0 659.54 987.34"><defs><style>.cls-1{fill:#ffc400;stroke:#000;stroke-width:20px;}.cls-1,.cls-2{stroke-miterlimit:10;}.cls-2{fill:#fff;stroke:#fff;stroke-width:8px;}</style></defs><path class="cls-1" d="M484.05,979.2c-46.34-77.57-95.15-153.63-141.61-231.13-43.88-73.19-86-147.86-119.51-226.46-10.31-24.17-19.78-48.71-28.1-73.64-24.59-73.71-23.47-148.77,2.29-222.71,17.23-49.48,46.5-94.21,87-127.71C333.9,56.4,397.44,34.09,460.59,24c63.85-10.18,135.65,6.76,192,37.42q9.18,5,18,10.66c47.67,30.63,85,75,109.43,125.93,33.92,70.7,48.9,144.85,24.9,220.64-5.57,17.58-11.88,34.91-18.76,52-14.6,36.29-31.69,71.54-50.09,106-40.22,75.4-86.54,147.39-133.22,218.9C563,856.65,522.57,917.33,484.05,979.2Z" transform="translate(-167.07 -11.06)"/><circle class="cls-2" cx="329.77" cy="365.14" r="178"/><path d="M473.14,499.12V305.62q-3.31,1.8-7.5,3.6c-2.81,1.2-5.76,2.46-8.85,3.75s-6.11,2.55-9,3.75-5.55,2.4-8,3.6v-37.2q3.29-1.8,9.3-4.95t12.9-7.05q6.88-3.89,12.9-7.95a63.32,63.32,0,0,0,9-7.05h39.3v243Z" transform="translate(-167.07 -11.06)"/><path d="M494.19,24.37a1.5,1.5,0,0,0,0-3,1.5,1.5,0,0,0,0,3Z" transform="translate(-167.07 -11.06)"/></svg>