<svg id="Layer_1" data-name="Layer 1" xmlns="http://www.w3.org/2000/svg" viewBox="0 0 659.54 987.34"><defs><style>.cls-1{fill:#ffc400;stroke:#000;stroke-width:20px;}.cls-1,.cls-2{stroke-miterlimit:10;}.cls-2{fill:#fff;stroke:#fff;stroke-width:8px;}</style></defs><path class="cls-1" d="M484.05,979.2c-46.34-77.57-95.15-153.63-141.61-231.13-43.88-73.19-86-147.86-119.51-226.46-10.31-24.17-19.78-48.71-28.1-73.64-24.59-73.71-23.47-148.77,2.29-222.71,17.23-49.48,46.5-94.21,87-127.71C333.9,56.4,397.44,34.09,460.59,24c63.85-10.18,135.65,6.76,192,37.42q9.18,5,18,10.66c47.67,30.63,85,75,109.43,125.93,33.92,70.7,48.9,144.85,24.9,220.64-5.57,17.58-11.88,34.91-18.76,52-14.6,36.29-31.69,71.54-50.09,106-40.22,75.4-86.54,147.39-133.22,218.9C563,856.65,522.57,917.33,484.05,979.2Z" transform="translate(-167.07 -11.06)"/><circle class="cls-2" cx="329.77" cy="365.14" r="178"/><path d="M432,496.12v-35.4l58.2-89.4q6.58-9.9,12.45-19.2a112.1,112.1,0,0,0,9.6-18.9,54.88,54.88,0,0,0,3.75-20.1q0-10.49-4.2-15.6a14,14,0,0,0-11.4-5.1q-8.1,0-12.6,4.5a23.68,23.68,0,0,0-6.15,12,77.91,77.91,0,0,0-1.65,16.8v12h-48.6v-12.9q0-21.6,6.9-38.55a56.39,56.39,0,0,1,21.9-26.7q15-9.73,39.3-9.75,32.69,0,49.35,16.95T565.54,314a78.44,78.44,0,0,1-4.65,27.3,124.78,124.78,0,0,1-12.3,24.45q-7.65,11.87-16.35,24.75l-44.4,66.3h71.1v39.3Z" transform="translate(-167.07 -11.06)"/><path d="M494.19,24.37a1.5,1.5,0,0,0,0-3,1.5,1.5,0,0,0,0,3Z" transform="translate(-167.07 -11.06)"/></svg>