<svg id="Layer_1" data-name="Layer 1" xmlns="http://www.w3.org/2000/svg" viewBox="0 0 25.29 25.27"><title>log_out</title><g id="md-log-out"><path id="Path_664" data-name="Path 664" d="M8.74,13.92H20.25l-2.65,2.71,1.82,1.81,5.83-5.83L19.42,6.8,17.54,8.61l2.71,2.71H8.74v2.6Z" transform="translate(0.04 0.01)" style="fill:#ffc400"/><path id="Path_665" data-name="Path 665" d="M12.61,22.66A10,10,0,1,1,19.68,5.51h0l1.84-1.84a13.4,13.4,0,0,0-1.68-1.4,12.63,12.63,0,1,0,1.68,19.3l-1.83-1.83a9.94,9.94,0,0,1-7.07,2.93Z" transform="translate(0.04 0.01)" style="fill:#ffc400"/><path id="Path_666" data-name="Path 666" d="M24.28,12.68l-.05-.05.05-.05.05.05Z" transform="translate(0.04 0.01)" style="fill:#ffc400"/></g></svg>