<svg id="Layer_1" data-name="Layer 1" xmlns="http://www.w3.org/2000/svg" viewBox="0 0 26.59 26.55"><title>my_fixes</title><g id="Group_31017" data-name="Group 31017"><path id="Path_72949" data-name="Path 72949" d="M14.53,13.86c.2.17.11.36,0,.55-.29.93-.59,1.86-.87,2.79a1.65,1.65,0,0,1-.43.73q-1.9,1.88-3.77,3.77L5.75,25.49a1.89,1.89,0,0,1-1.46.6,1.68,1.68,0,0,1-1.17-.48q-1-1-2.07-2.08A1.86,1.86,0,0,1,1.1,21c1.11-1.09,2.2-2.2,3.3-3.3l4.37-4.4a1.15,1.15,0,0,1,.5-.3l3-.93c.17-.06.34-.11.5.06l.26-.24,7.49-7.5a.93.93,0,0,0,.3-.54c0-.15.09-.3.12-.45a1,1,0,0,1,.43-.67c.94-.74,1.87-1.5,2.8-2.25l.15-.11,2,1.94-.18.23c-.76.95-1.51,1.89-2.26,2.84a.85.85,0,0,1-.48.32c-1.07.28-.73.07-1.51.86l-7.08,7.11ZM4.38,25.51a1.4,1.4,0,0,0,.92-.43l7.56-7.57a1,1,0,0,0,.26-.42c.26-.87.53-1.74.81-2.6a.34.34,0,0,0-.1-.41c-.41-.4-.81-.79-1.2-1.2a.48.48,0,0,0-.58-.15c-.79.26-1.58.51-2.38.75a1.35,1.35,0,0,0-.58.36L2.44,20.49c-.31.31-.62.61-.92.92a1.22,1.22,0,0,0,0,1.72l0,0c.65.67,1.31,1.33,2,2a1.29,1.29,0,0,0,.88.38ZM21.84,5.65l-.9-.9-7.73,7.76.91.88,7.71-7.73Zm2.43-4.52L24,1.29c-.68.55-1.35,1.11-2.05,1.64a1.34,1.34,0,0,0-.59.95.34.34,0,0,1,0,.1.27.27,0,0,0,.09.33l.61.61c.43.44.3.33.83.23a1,1,0,0,0,.64-.42c.58-.74,1.17-1.47,1.76-2.21.06-.08.11-.16.15-.22Z" transform="translate(0 -0.01)" style="fill:#ffc400;stroke:#ffc400;stroke-miterlimit:10;stroke-width:0.5px"/><path id="Path_72951" data-name="Path 72951" d="M22.17,25.54l-.27-.29c-.48-.48-1-1-1.44-1.44a1.47,1.47,0,0,1-.09-2.07l.09-.09c.33-.33.67-.65,1-1a1.5,1.5,0,0,1,2.12,0c.48.51,1,1,1.48,1.49l.25.22a4.09,4.09,0,0,0-.74-3.67,4.36,4.36,0,0,0-5-1.38L16,13.68l.45-.39,3.33,3.33a4.83,4.83,0,0,1,5.31,1.79,4.9,4.9,0,0,1,.53,5.14l-.28-.26L23.25,21.2,23.09,21a.81.81,0,0,0-1.15,0l0,0q-.55.53-1.08,1.09a.83.83,0,0,0-.05,1.12l.2.22,2.07,2.08.24.26a3.68,3.68,0,0,1-1,.36,4.93,4.93,0,0,1-5.93-3.62,4.57,4.57,0,0,1,0-2.3.42.42,0,0,0-.13-.46c-.57-.56-1.13-1.13-1.7-1.7l-.21-.22.38-.4,2.39,2.38a4.32,4.32,0,0,0,1.35,4.89A4,4,0,0,0,22.17,25.54Z" transform="translate(0 -0.01)" style="fill:#ffc400;stroke:#ffc400;stroke-miterlimit:10;stroke-width:0.5px"/><path id="Path_72953" data-name="Path 72953" d="M13,9.9l-.44.36-.18-.15-3-3a.4.4,0,0,1-.12-.47A4.18,4.18,0,0,0,9.5,5.26,4.36,4.36,0,0,0,6,1.08a3.77,3.77,0,0,0-1.52,0l-.23.08c0,.15.13.22.2.3.51.51,1,1,1.53,1.53a1.47,1.47,0,0,1,.24,1.67A1.77,1.77,0,0,1,5.91,5c-.35.37-.72.72-1.08,1.09a1.43,1.43,0,0,1-2,0L1.29,4.58,1,4.35A4,4,0,0,0,1.6,7.79,4.3,4.3,0,0,0,6.66,9.41L9.3,12l-.42.38L7.4,10.94c-.23-.23-.46-.45-.68-.69a.35.35,0,0,0-.38-.12A4.59,4.59,0,0,1,5,10.27,4.93,4.93,0,0,1,.56,3.62l.15-.4.09-.05A1.89,1.89,0,0,0,1,3.42L3.14,5.6a.85.85,0,0,0,1,.25,1,1,0,0,0,.3-.2l1-1a.86.86,0,0,0,.07-1.22l-.08-.08C4.71,2.62,4,1.89,3.27,1.17,3.2,1.09,3.11,1,3,.93A2.52,2.52,0,0,1,3.86.59,4.91,4.91,0,0,1,9.91,4l.06.24a4.75,4.75,0,0,1,0,2.21.47.47,0,0,0,.14.5l2.69,2.69C12.87,9.71,12.94,9.8,13,9.9Z" transform="translate(0 -0.01)" style="fill:#ffc400;stroke:#ffc400;stroke-miterlimit:10;stroke-width:0.5px"/><path id="Path_72955" data-name="Path 72955" d="M9.44,14.66l.46.42L2.53,22.46l-.44-.41Z" transform="translate(0 -0.01)" style="fill:#ffc400;stroke:#ffc400;stroke-miterlimit:10;stroke-width:0.5px"/><path id="Path_72957" data-name="Path 72957" d="M4.62,24.62l-.45-.48,7.37-7.39.39.44-.21.23L8.89,20.25l-4.06,4.1Z" transform="translate(0 -0.01)" style="fill:#ffc400;stroke:#ffc400;stroke-miterlimit:10;stroke-width:0.5px"/><path id="Path_72959" data-name="Path 72959" d="M3.5,23.47l-.35-.39L10.5,15.7l.23.21.22.16Z" transform="translate(0 -0.01)" style="fill:#ffc400;stroke:#ffc400;stroke-miterlimit:10;stroke-width:0.5px"/></g></svg>