<svg id="Layer_1" data-name="Layer 1" xmlns="http://www.w3.org/2000/svg" viewBox="0 0 26.8 26.79"><title>my_papers</title><g id="Group_31016" data-name="Group 31016"><path id="Path_72961" data-name="Path 72961" d="M20.89.93h3.63c.23,0,.41.05.49.29s-.06.37-.23.5a5.71,5.71,0,0,0-1.6,2.53H25.4c.22,0,.43.08.44.3a.63.63,0,0,1-.2.47,6.07,6.07,0,0,0-1.72,2.45s0,.06,0,.12h2.21a1,1,0,0,1,.34,0,.38.38,0,0,1,.1.65,9.59,9.59,0,0,0-3,4.68,41.53,41.53,0,0,0-2,7.88c-.3,1.81-.51,3.64-.76,5.46a.4.4,0,0,1-.4.4H.76c-.6,0-.66-.06-.66-.66V.73C.1.17.17.1.73.1H20.19c.6,0,.66.05.68.65C20.87.79,20.88.83,20.89.93Zm-.84,0H.93v25H20.05Zm3.52.84H20.89v9c.22-1.21.4-2.33.62-3.45a16.78,16.78,0,0,1,1.55-4.71c.15-.27.32-.52.5-.81Zm-1.76,14c.81-2.58,1.58-5.18,3.36-7.37-.5,0-.94,0-1.37,0a.3.3,0,0,0-.35.24h0c-.35,1.33-.74,2.66-1.06,4-.24,1-.39,2.08-.58,3.12Zm-.25-3.31c.63-2.57,1.19-5.16,2.8-7.36l-.09,0c-.34,0-.69,0-1,0s-.36.07-.43.32a41.75,41.75,0,0,0-1.26,7.08Z" transform="translate(0 0)" style="fill:#ffc400;stroke:#ffc400;stroke-miterlimit:10;stroke-width:0.20000000298023224px"/><path id="Path_72963" data-name="Path 72963" d="M10.49,22.54H3.77c-.21,0-.36-.18-.33-.38a.75.75,0,0,1,.29-.38c.07-.06.22,0,.33,0H16.88c.48,0,.67.12.66.42s-.19.4-.65.4h-6.4Z" transform="translate(0 0)" style="fill:#ffc400;stroke:#ffc400;stroke-miterlimit:10;stroke-width:0.20000000298023224px"/><path id="Path_72965" data-name="Path 72965" d="M10.46,9.22H3.81a.4.4,0,0,1,0-.8h13.1c.1,0,.24,0,.3,0a.78.78,0,0,1,.29.39.34.34,0,0,1-.29.38H10.46Z" transform="translate(0 0)" style="fill:#ffc400;stroke:#ffc400;stroke-miterlimit:10;stroke-width:0.20000000298023224px"/><path id="Path_72967" data-name="Path 72967" d="M10.5,12.55H3.8a.37.37,0,0,1-.36-.36.37.37,0,0,1,.32-.42h0a1.76,1.76,0,0,1,.34,0H16.74a3.15,3.15,0,0,1,.43,0c.24,0,.38.15.35.42a.33.33,0,0,1-.32.35h-.07l-2.71,0Z" transform="translate(0 0)" style="fill:#ffc400;stroke:#ffc400;stroke-miterlimit:10;stroke-width:0.20000000298023224px"/><path id="Path_72969" data-name="Path 72969" d="M10.48,19.2H3.78c-.23,0-.39-.19-.34-.4a.81.81,0,0,1,.33-.38c.07,0,.2,0,.3,0H16.95c.1,0,.24,0,.3,0s.27.27.26.39-.18.27-.31.36-.22,0-.34,0Z" transform="translate(0 0)" style="fill:#ffc400;stroke:#ffc400;stroke-miterlimit:10;stroke-width:0.20000000298023224px"/><path id="Path_72971" data-name="Path 72971" d="M10.48,15.88H3.87c-.28,0-.46-.18-.44-.41a.39.39,0,0,1,.39-.39H17c.35,0,.53.14.53.4s-.19.41-.55.41Z" transform="translate(0 0)" style="fill:#ffc400;stroke:#ffc400;stroke-miterlimit:10;stroke-width:0.20000000298023224px"/><path id="Path_72973" data-name="Path 72973" d="M8,5.09h3.9c.1,0,.24,0,.3,0s.31.24.32.38-.16.28-.28.38-.18,0-.27,0H3.86a.38.38,0,0,1-.43-.4.38.38,0,0,1,.35-.4H8Z" transform="translate(0 0)" style="fill:#ffc400;stroke:#ffc400;stroke-miterlimit:10;stroke-width:0.20000000298023224px"/></g></svg>