<svg xmlns="http://www.w3.org/2000/svg" width="22.417" height="25" viewBox="0 0 22.417 25">
  <path id="notification" d="M25.53,17.763,23.2,15.435V11.47a8.681,8.681,0,0,0-7.759-8.621V1.125H13.719V2.849A8.75,8.75,0,0,0,5.961,11.47v3.966L3.633,17.763a.785.785,0,0,0-.258.6v2.586a.81.81,0,0,0,.862.862h6.034a4.31,4.31,0,1,0,8.621,0h6.034a.81.81,0,0,0,.862-.862V18.366A.785.785,0,0,0,25.53,17.763ZM14.581,24.4A2.586,2.586,0,0,1,12,21.815h5.172A2.586,2.586,0,0,1,14.581,24.4Zm9.483-4.31H5.1V18.711l2.328-2.328a.785.785,0,0,0,.258-.6V11.47a6.9,6.9,0,1,1,13.793,0v4.31a.785.785,0,0,0,.258.6l2.328,2.328Z" transform="translate(-3.373 -1.125)" fill="#ffc400"/>
</svg>
