<svg id="Layer_1" data-name="Layer 1" xmlns="http://www.w3.org/2000/svg" viewBox="0 0 32.29 20"><title>payment</title><g id="payment-method-cash-svgrepo-com"><g id="Group_31052" data-name="Group 31052"><g id="Group_31051" data-name="Group 31051"><path id="Path_73014" data-name="Path 73014" d="M17.05,8.23H2a2,2,0,0,0-2,2V18a2,2,0,0,0,2,2H14.2a.54.54,0,1,0,0-1.08H2A.87.87,0,0,1,1.08,18V14.18H17.92V18a.87.87,0,0,1-.87.87H16A.54.54,0,1,0,16,20h1a2,2,0,0,0,2-2V10.19A2,2,0,0,0,17.05,8.23Zm.87,4.86H1.08V11.65H4.32a.54.54,0,1,0,0-1.08H1.08v-.38A.87.87,0,0,1,2,9.32h15.1a.87.87,0,0,1,.87.87v.38H6.12a.54.54,0,1,0,0,1.08h11.8V13.1Z" style="fill:#fcc400"/></g></g><g id="Group_31054" data-name="Group 31054"><g id="Group_31053" data-name="Group 31053"><path id="Path_73015" data-name="Path 73015" d="M23.21,0H6.82a.54.54,0,0,0-.54.54h0V6.86a.54.54,0,0,0,1.08,0V4.38a3.88,3.88,0,0,0,3.29-3.29H23.21a.54.54,0,1,0,0-1.08ZM7.36,3.28V1.08h2.2A2.8,2.8,0,0,1,7.36,3.28Z" style="fill:#fcc400"/></g></g><g id="Group_31056" data-name="Group 31056"><g id="Group_31055" data-name="Group 31055"><path id="Path_73016" data-name="Path 73016" d="M31.75,0H25a.54.54,0,1,0,0,1.08h2.9a3.88,3.88,0,0,0,3.29,3.29V8.89a3.88,3.88,0,0,0-3.29,3.29H20.38a.54.54,0,1,0,0,1.08H31.75a.54.54,0,0,0,.54-.54V.54A.54.54,0,0,0,31.75,0Zm-.54,3.28A2.8,2.8,0,0,1,29,1.08h2.2Zm0,8.9H29a2.8,2.8,0,0,1,2.2-2.2Z" style="fill:#fcc400"/></g></g><g id="Group_31058" data-name="Group 31058"><g id="Group_31057" data-name="Group 31057"><path id="Path_73017" data-name="Path 73017" d="M19.29,2.77c-2.74,0-5,1.73-5,3.86a2,2,0,0,0,0,.28.54.54,0,0,0,1.08-.1c0-.06,0-.12,0-.18,0-1.53,1.75-2.78,3.9-2.78s3.9,1.25,3.9,2.78c0,1.26-1.2,2.36-2.91,2.68a.54.54,0,1,0,.17,1.07h0c2.23-.42,3.79-2,3.79-3.75C24.27,4.5,22,2.77,19.29,2.77Z" style="fill:#fcc400"/></g></g><g id="Group_31060" data-name="Group 31060"><g id="Group_31059" data-name="Group 31059"><path id="Path_73018" data-name="Path 73018" d="M5.9,15.28H2.45a.54.54,0,1,0,0,1.08H5.9a.54.54,0,1,0,0-1.08Z" style="fill:#fcc400"/></g></g></g></svg>