<svg id="Layer_1" data-name="Layer 1" xmlns="http://www.w3.org/2000/svg" viewBox="0 0 29.26 31.5"><title>person</title><g id="person"><path id="Path_23582" data-name="Path 23582" d="M20,2.29A7.24,7.24,0,0,0,14.63,0a7.26,7.26,0,0,0-5.4,2.28A7.44,7.44,0,0,0,7.34,8c.31,4.29,3.58,7.79,7.29,7.79s7-3.49,7.29-7.79A7.41,7.41,0,0,0,20,2.29Z" transform="translate(0 0)" style="fill:#ffc400"/><path id="Path_23583" data-name="Path 23583" d="M27,31.5H2.25a2.18,2.18,0,0,1-1.7-.78,2.48,2.48,0,0,1-.5-2,12,12,0,0,1,5.36-8A16.78,16.78,0,0,1,14.63,18a16.78,16.78,0,0,1,9.23,2.67,12,12,0,0,1,5.36,8,2.49,2.49,0,0,1-.51,2A2.18,2.18,0,0,1,27,31.5Z" transform="translate(0 0)" style="fill:#ffc400"/></g></svg>