<svg id="Layer_1" data-name="Layer 1" xmlns="http://www.w3.org/2000/svg" viewBox="0 0 555.25 977.41"><path d="M327.12,13.33a1.5,1.5,0,1,0-1.5-1.5A1.5,1.5,0,0,0,327.12,13.33Z" transform="translate(-34.79 -7.24)"/><path d="M211.41,36C74.69,90.65,8.85,248.06,64.57,387.52A272.55,272.55,0,0,0,268.4,555.15c8,87.66,46.41,487.62,77.2,409.55,27.38-69.43,36.15-341.51,38-414a262.42,262.42,0,0,0,29.55-9.64c137-54.71,202.79-212.13,147.06-351.59S348.36-18.69,211.41,36Zm41.43,93c-70.44,31.77-117,91.55-125.84,152.09-.7-1.57-1.56-3-2.2-4.64C96.48,205.62,145.62,119.35,234.35,83.89,313.77,52.16,397.89,71.7,435.22,126.7,385,101.32,316.86,100.14,252.84,129.06Z" transform="translate(-34.79 -7.24)" style="fill:#fcc400"/><path d="M337.52,984.65a15.87,15.87,0,0,1-2.15-.15c-9.7-1.4-14.95-12-18.79-22.27-3.67-9.75-7.48-23.73-11.33-41.57-6.55-30.3-13.48-72.76-20.6-126.19-11.93-89.56-21.34-186.71-25.42-231.05A282.46,282.46,0,0,1,55.39,391.19C27.48,321.33,27.94,245,56.7,176.14s82.42-121.88,151-149.3,144.2-26,212.53,4S541.52,115.93,569.44,185.8s27.44,146.25-1.34,215.06S485.58,522.79,416.86,550.25c-7.17,2.86-14.92,5.5-23.53,8-2.41,87.92-11.63,341.86-38.53,410.07C350.53,979.17,344.72,984.65,337.52,984.65ZM211.41,36l3.67,9.19C83.55,97.76,20.15,249.68,73.76,383.85c33.9,84.85,107.33,145.25,196.43,161.57l7.39,1.35.67,7.48c3.44,37.86,12.72,135.85,24.74,228,6.71,51.4,13.24,93.07,19.43,123.85,6.37,31.7,11.34,46.68,14.47,53.72,20.75-55.12,32.64-247.12,36.86-409.36l.19-7.38,7.13-1.92a254.26,254.26,0,0,0,28.45-9.27c63.75-25.47,113.59-74.71,140.33-138.65s27.2-135.06,1.22-200.09C497.46,59,346.74-7.4,215.08,45.21ZM131.88,316.1,118,285.21c-.23-.52-.49-1-.74-1.53-.51-1-1.09-2.17-1.62-3.5-14.84-37.13-10.77-79.09,11.46-118.16,21.81-38.32,58.6-69.33,103.6-87.31,82.6-33,172.06-13.48,212.72,46.43l21.44,31.6-34.08-17.22C381,110.41,316,111.36,256.91,138.07h0c-65.36,29.48-111.38,84.86-120.12,144.52ZM312.09,78.47A200.38,200.38,0,0,0,238,93.08c-40.85,16.32-74.15,44.28-93.75,78.72-13.28,23.36-19.12,47.75-17.29,71,19.8-51.46,63.89-96.61,121.79-122.73h0c48.94-22.11,101.82-27.91,148.52-17.3C373.94,86.86,344.1,78.47,312.09,78.47Z" transform="translate(-34.79 -7.24)"/></svg>