<svg id="Layer_1" data-name="Layer 1" xmlns="http://www.w3.org/2000/svg" viewBox="0 0 27.17 30.19"><path id="Path_73178" data-name="Path 73178" d="M24.9,0H2.26A2.27,2.27,0,0,0,0,2.27V27.92a2.27,2.27,0,0,0,2.26,2.27H24.9a2.29,2.29,0,0,0,2.27-2.27V2.27A2.29,2.29,0,0,0,24.9,0Zm.76,27.92a.76.76,0,0,1-.76.76H2.26a.76.76,0,0,1-.75-.75h0V2.27a.76.76,0,0,1,.74-.76H24.9a.76.76,0,0,1,.76.76h0ZM3,10.57H24.15V3H3Zm1.51-6H22.64V9.1H4.53Zm3,9.06h-3A1.52,1.52,0,0,0,3,15.14H3v3a1.52,1.52,0,0,0,1.51,1.51h3A1.52,1.52,0,0,0,9,18.14H9v-3a1.52,1.52,0,0,0-1.49-1.55h0Zm0,4.53h-3v-3h3Zm7.55-4.53h-3a1.53,1.53,0,0,0-1.51,1.51h0v3a1.53,1.53,0,0,0,1.51,1.51h3a1.53,1.53,0,0,0,1.51-1.51h0v-3a1.52,1.52,0,0,0-1.49-1.55h0Zm0,4.53h-3v-3h3Zm0,3h-3a1.52,1.52,0,0,0-1.51,1.51h0v3a1.53,1.53,0,0,0,1.51,1.51h3a1.53,1.53,0,0,0,1.51-1.51h0v-3a1.52,1.52,0,0,0-1.5-1.54h0Zm0,4.53h-3v-3h3ZM7.54,21.13h-3A1.52,1.52,0,0,0,3,22.64H3v3a1.52,1.52,0,0,0,1.51,1.51h3a1.52,1.52,0,0,0,1.51-1.51h0v-3a1.52,1.52,0,0,0-1.51-1.51Zm0,4.53h-3v-3h3Zm15.1-12.07h-3a1.53,1.53,0,0,0-1.51,1.51h0V25.67a1.53,1.53,0,0,0,1.51,1.51h3a1.53,1.53,0,0,0,1.51-1.51h0V15.1A1.53,1.53,0,0,0,22.64,13.59Zm0,12.08h-3V15.1h3Z" style="fill:#fff"/></svg>