<svg id="Layer_1" data-name="Layer 1" xmlns="http://www.w3.org/2000/svg" viewBox="0 0 27.17 30.18"><path id="Path_73178" data-name="Path 73178" d="M27.23,1H4.59A2.28,2.28,0,0,0,2.33,3.28V28.93A2.27,2.27,0,0,0,4.59,31.2H27.23a2.27,2.27,0,0,0,2.27-2.27V3.28A2.28,2.28,0,0,0,27.23,1ZM28,28.93a.76.76,0,0,1-.76.76H4.59a.76.76,0,0,1-.75-.76V3.28a.76.76,0,0,1,.75-.76H27.23a.76.76,0,0,1,.76.76h0ZM5.35,11.58H26.48V4H5.35Zm1.51-6H25v4.53H6.86Zm3,9.06h-3a1.52,1.52,0,0,0-1.51,1.51h0v3a1.52,1.52,0,0,0,1.51,1.51h3a1.52,1.52,0,0,0,1.51-1.51h0v-3A1.52,1.52,0,0,0,9.88,14.6Zm0,4.53h-3v-3h3Zm7.54-4.53h-3a1.51,1.51,0,0,0-1.5,1.51h0v3a1.51,1.51,0,0,0,1.5,1.51h3a1.51,1.51,0,0,0,1.51-1.51h0v-3A1.52,1.52,0,0,0,17.42,14.6Zm0,4.53h-3v-3h3Zm0,3h-3a1.51,1.51,0,0,0-1.5,1.51h0v3a1.51,1.51,0,0,0,1.5,1.51h3a1.51,1.51,0,0,0,1.51-1.51h0v-3a1.51,1.51,0,0,0-1.51-1.51h0Zm0,4.53h-3v-3h3ZM9.88,22.14h-3a1.52,1.52,0,0,0-1.51,1.51h0v3a1.52,1.52,0,0,0,1.51,1.51h3a1.52,1.52,0,0,0,1.51-1.51h0v-3a1.52,1.52,0,0,0-1.51-1.51Zm0,4.53h-3v-3h3ZM25,14.6H22a1.52,1.52,0,0,0-1.51,1.51h0V26.68A1.52,1.52,0,0,0,22,28.19h3a1.52,1.52,0,0,0,1.51-1.51h0V16.11A1.51,1.51,0,0,0,25,14.6Zm0,12.08H22V16.11h3Z" transform="translate(-2.33 -1.01)" style="fill:#fcc401"/></svg>