<svg id="Layer_1" data-name="Layer 1" xmlns="http://www.w3.org/2000/svg" viewBox="0 0 27.17 30.18"><path id="Path_73178" data-name="Path 73178" d="M30.51,4.67H7.87A2.27,2.27,0,0,0,5.61,6.94V32.59a2.27,2.27,0,0,0,2.26,2.27H30.51a2.28,2.28,0,0,0,2.27-2.27V6.94A2.29,2.29,0,0,0,30.51,4.67Zm.76,27.92a.76.76,0,0,1-.76.76H7.87a.75.75,0,0,1-.75-.76V6.94a.75.75,0,0,1,.75-.76H30.51a.76.76,0,0,1,.76.76h0ZM8.63,15.24H29.76V7.69H8.63Zm1.51-6H28.25v4.53H10.14Zm3,9.06h-3a1.51,1.51,0,0,0-1.51,1.51h0v3a1.51,1.51,0,0,0,1.51,1.51h3a1.51,1.51,0,0,0,1.51-1.51h0v-3A1.52,1.52,0,0,0,13.15,18.26Zm0,4.53h-3v-3h3Zm7.55-4.53h-3a1.52,1.52,0,0,0-1.51,1.51h0v3a1.52,1.52,0,0,0,1.51,1.51h3a1.52,1.52,0,0,0,1.51-1.51h0v-3A1.52,1.52,0,0,0,20.7,18.26Zm0,4.53h-3v-3h3Zm0,3h-3a1.51,1.51,0,0,0-1.51,1.51h0v3a1.52,1.52,0,0,0,1.51,1.51h3a1.52,1.52,0,0,0,1.51-1.51h0v-3A1.52,1.52,0,0,0,20.7,25.8h0Zm0,4.53h-3v-3h3ZM13.15,25.8h-3a1.51,1.51,0,0,0-1.51,1.51h0v3a1.51,1.51,0,0,0,1.51,1.51h3a1.51,1.51,0,0,0,1.51-1.51h0v-3a1.51,1.51,0,0,0-1.51-1.51Zm0,4.53h-3v-3h3Zm15.1-12.07h-3a1.52,1.52,0,0,0-1.51,1.51h0V30.34a1.52,1.52,0,0,0,1.51,1.51h3a1.52,1.52,0,0,0,1.51-1.51h0V19.77A1.52,1.52,0,0,0,28.25,18.26Zm0,12.08h-3V19.77h3Z" transform="translate(-5.61 -4.67)"/></svg>