<svg id="Layer_1" data-name="Layer 1" xmlns="http://www.w3.org/2000/svg" viewBox="0 0 45.43 34.07"><g id="truck-line"><path d="M41.05,18h-5.7V10.9A1.43,1.43,0,0,0,34,9.48H2.72A1.43,1.43,0,0,0,1.3,10.9h0V36.45a1.42,1.42,0,0,0,1.42,1.42H4.14V12.3h28.4V28.93a9.17,9.17,0,0,1,2.21-.28h.63v-7.8h5.67a2.84,2.84,0,0,1,2.83,2.84h0v1.42H38.2v2.83h5.68V35H40.49a6.45,6.45,0,0,0-11.85,0H19A6.4,6.4,0,0,0,13,31.11a6.22,6.22,0,1,0,6.33,6.76h8.91a6.37,6.37,0,0,0,12.67,0h4.38a1.41,1.41,0,0,0,1.41-1.42V23.68A5.68,5.68,0,0,0,41.05,18ZM13,40.72a3.39,3.39,0,1,1-.8-6.73l.33,0H13a3.39,3.39,0,0,1,.8,6.73l-.34,0Zm21.54,0a3.37,3.37,0,1,1,3.54-3.38A3.47,3.47,0,0,1,34.57,40.72Z" transform="translate(-1.3 -9.48)" style="fill:#363636"/></g><path d="M24.89,28a.66.66,0,0,1-.47-.19L22,25.34a5.87,5.87,0,0,1-3.7,1.3,5.94,5.94,0,1,1,4.63-2.23l2.42,2.43a.65.65,0,0,1,0,.93A.63.63,0,0,1,24.89,28ZM18.3,16.1a4.62,4.62,0,1,0,4.61,4.61A4.62,4.62,0,0,0,18.3,16.1Zm3.29,5.27a.66.66,0,0,1-.66-.66,2.63,2.63,0,0,0-2.63-2.63.66.66,0,1,1,0-1.32,4,4,0,0,1,3.95,3.95A.65.65,0,0,1,21.59,21.37Z" transform="translate(-1.3 -9.48)" style="fill:#363636"/></svg>