<svg id="Layer_1" data-name="Layer 1" xmlns="http://www.w3.org/2000/svg" viewBox="0 0 27 23.15"><title>settings</title><g id="settings-adjust"><path id="Path_660" data-name="Path 660" d="M27,3.86H23a4.82,4.82,0,0,0-9.45,0H0V5.79H13.6a4.82,4.82,0,0,0,9.45,0H27ZM18.32,7.71a2.84,2.84,0,0,1-2.89-2.79s0-.07,0-.1a2.89,2.89,0,0,1,5.79,0,2.84,2.84,0,0,1-2.79,2.89Z" transform="translate(0 0)" style="fill:#ffc400"/><path id="Path_661" data-name="Path 661" d="M0,19.29H3.95a4.82,4.82,0,0,0,9.45,0H27V17.36H13.4a4.82,4.82,0,0,0-9.45,0H0Zm8.68-3.86a2.89,2.89,0,1,1-2.89,2.89h0a2.84,2.84,0,0,1,2.79-2.89Z" transform="translate(0 0)" style="fill:#ffc400"/></g></svg>