<svg id="Layer_1" data-name="Layer 1" xmlns="http://www.w3.org/2000/svg" viewBox="0 0 478 422.8"><path d="M372.8,189.6,356,172.8a11.6,11.6,0,0,0-16.8,0L233.6,278.4,191.2,236a11.6,11.6,0,0,0-16.8,0l-16.8,16.8a11.6,11.6,0,0,0,0,16.8l59.2,59.2a24.4,24.4,0,0,0,16.8,7.2,23,23,0,0,0,16.8-7.2L372.8,206.4C376.8,202.4,376.8,194.4,372.8,189.6Z" transform="translate(-154 -169.2)" style="fill:#fcc400"/><path d="M616,304H408a16,16,0,0,1-16-16V256a16,16,0,0,1,16-16H616a16,16,0,0,1,16,16v32A16,16,0,0,1,616,304Z" transform="translate(-154 -169.2)" style="fill:#fcc400"/><path d="M616,448H360a16,16,0,0,1-16-16V400a16,16,0,0,1,16-16H616a16,16,0,0,1,16,16v32A16,16,0,0,1,616,448Z" transform="translate(-154 -169.2)" style="fill:#fcc400"/><path d="M264,448H232a16,16,0,0,1-16-16V400a16,16,0,0,1,16-16h32a16,16,0,0,1,16,16v32A16,16,0,0,1,264,448Z" transform="translate(-154 -169.2)" style="fill:#fcc400"/><path d="M264,592H232a16,16,0,0,1-16-16V544a16,16,0,0,1,16-16h32a16,16,0,0,1,16,16v32A16,16,0,0,1,264,592Z" transform="translate(-154 -169.2)" style="fill:#fcc400"/><path d="M616,592H360a16,16,0,0,1-16-16V544a16,16,0,0,1,16-16H616a16,16,0,0,1,16,16v32A16,16,0,0,1,616,592Z" transform="translate(-154 -169.2)" style="fill:#fcc400"/></svg>