<svg id="Layer_1" data-name="Layer 1" xmlns="http://www.w3.org/2000/svg" viewBox="0 0 647.62 647.73"><path d="M552.38,0H323.81a95.35,95.35,0,0,0-95.24,95.24V323.81a95.35,95.35,0,0,0,95.24,95.24H552.38a95.35,95.35,0,0,0,95.24-95.24V95.24A95.34,95.34,0,0,0,552.38,0Zm57.14,323.81A57.2,57.2,0,0,1,552.38,381H323.81a57.2,57.2,0,0,1-57.14-57.14V95.24A57.2,57.2,0,0,1,323.81,38.1H552.38a57.2,57.2,0,0,1,57.14,57.14Z" transform="translate(0)" style="fill:#fff"/><path d="M400,457.14a19.05,19.05,0,0,0-19.05,19v75.91a57.24,57.24,0,0,1-57,57.14l-228.54.39h-.13a57.2,57.2,0,0,1-57.14-57.14V323.94a57.21,57.21,0,0,1,57.1-57.13h76.19a19,19,0,0,0,0-38.1H95.24A95.35,95.35,0,0,0,0,324V552.49a95.34,95.34,0,0,0,95.24,95.24h.16l228.58-.4a95.37,95.37,0,0,0,95.07-95.23V476.19A19.05,19.05,0,0,0,400,457.14Z" transform="translate(0)" style="fill:#fff"/><path d="M76.19,400.11a19.05,19.05,0,0,0,19,19.05h24.07c13.28,39.68,32.33,69.58,56.76,89.06-12.89,7.37-29.6,16.3-51.24,27.12a19,19,0,0,0,17,34.08c29-14.51,51.64-26.8,68.61-37.32a756.27,756.27,0,0,0,66.74,37.32,19,19,0,1,0,17-34.08h0q-27.76-13.86-51-27.8l36.93-36.93a19,19,0,1,0-26.94-26.94l-38,38.14a59.23,59.23,0,0,1-4.9,4.33c-2.84-2-5.62-4-8.31-6-17.17-12.87-31.28-33.3-42.1-60.9h49.71a19,19,0,1,0,0-38.09H95.24a19,19,0,0,0-19,19Z" transform="translate(0)" style="fill:#fcc400"/><path d="M455.13,86.72c-.06-.13-.14-.24-.2-.36-.17-.33-.35-.67-.54-1s-.29-.46-.44-.69-.39-.57-.6-.85-.34-.46-.52-.68-.42-.5-.64-.74l-.63-.66c-.21-.21-.44-.43-.67-.63s-.48-.44-.73-.64l-.69-.53-.84-.6-.7-.44-1-.53-.37-.21L446.2,78a9.43,9.43,0,0,0-1-.41c-.37-.13-.56-.23-.85-.33l-.84-.28c-.33-.09-.65-.19-1-.27l-.78-.17-1-.19-.8-.09-1-.08h-1.81l-1,.08-.81.09a4.66,4.66,0,0,0-1,.19l-.79.17-1,.27-.85.28-.86.33c-.31.13-.62.26-.93.41l-.37.16c-.13.07-.25.15-.38.21l-.93.53c-.24.14-.48.29-.71.45s-.56.38-.83.58l-.7.54-.72.63c-.23.21-.46.42-.68.64s-.42.43-.62.66-.44.49-.65.74-.35.45-.52.68-.41.56-.6.85-.3.46-.44.69-.36.63-.53,1c-.07.13-.15.24-.21.37L306.81,315.29a19,19,0,0,0,34.08,17l32.83-65.66H502.51l32.84,65.66a19,19,0,1,0,34.07-17ZM392.72,228.57l45.38-90.76,45.37,90.74Z" transform="translate(0)" style="fill:#fcc400"/></svg>