<svg id="Layer_1" data-name="Layer 1" xmlns="http://www.w3.org/2000/svg" viewBox="0 0 31.5 23.62"><title>truck_state</title><g id="Group_31015" data-name="Group 31015"><g id="Group_29802" data-name="Group 29802"><path id="truck-line" d="M27.56,5.91H23.63V1a1,1,0,0,0-1-1H1A1,1,0,0,0,0,1H0V18.7a1,1,0,0,0,1,1H2V2H21.66V13.49a6.35,6.35,0,0,1,1.54-.2h.43V7.88h3.94a2,2,0,0,1,2,2v1H25.59v2h3.94v4.92H27.17a4.47,4.47,0,0,0-8.21,0H12.24A4.43,4.43,0,0,0,8.13,15a4.31,4.31,0,1,0,4.39,4.69H18.7a4.42,4.42,0,0,0,8.78,0h3a1,1,0,0,0,1-1h0V9.84A3.94,3.94,0,0,0,27.56,5.91ZM8.13,21.66A2.34,2.34,0,0,1,7.83,17h.31a2.34,2.34,0,0,1,.31,4.68Zm14.93,0a2.34,2.34,0,1,1,2.46-2.33A2.4,2.4,0,0,1,23.06,21.66Z" style="fill:#ffc400"/></g><g id="bx-error-circle"><path id="Path_72975" data-name="Path 72975" d="M13.29,4.51h2v6.83h-2Zm0,7.81h2v2h-2Z" style="fill:#ffc400"/></g></g></svg>