<svg id="Layer_1" data-name="Layer 1" xmlns="http://www.w3.org/2000/svg" viewBox="0 0 37.16 27.87"><path id="truck-line" d="M6.26,15.67h4.66V9.86A1.16,1.16,0,0,1,12.06,8.7H37.61a1.16,1.16,0,0,1,1.16,1.16h0v20.9a1.16,1.16,0,0,1-1.16,1.16H36.45V11H13.22V24.61a7.36,7.36,0,0,0-1.81-.23H10.9V18H6.26a2.32,2.32,0,0,0-2.32,2.32h0v1.16H8.59v2.32H3.94V29.6H6.72a5.27,5.27,0,0,1,9.69,0h7.93a5.21,5.21,0,0,1,4.84-3.21A5.09,5.09,0,1,1,24,31.92H16.71a5.21,5.21,0,0,1-10.36,0H2.77a1.16,1.16,0,0,1-1.16-1.16V20.31A4.65,4.65,0,0,1,6.26,15.67ZM29.18,34.25a2.77,2.77,0,1,0,.38-5.52,2.41,2.41,0,0,0-.38,0,2.77,2.77,0,1,0-.38,5.52Zm-17.62,0a2.76,2.76,0,1,0-2.9-2.76,2.84,2.84,0,0,0,2.9,2.76Z" transform="translate(-1.61 -8.7)"/></svg>