<svg id="Layer_1" data-name="Layer 1" xmlns="http://www.w3.org/2000/svg" viewBox="0 0 36.01 29.34"><title>truck</title><path id="truck" d="M12,24a2.7,2.7,0,0,0-2.67-2.67,2.67,2.67,0,1,0,1.87,4.54A2.56,2.56,0,0,0,12,24ZM4,13.33h8V8H8.71a.62.62,0,0,0-.46.19L4.19,12.25a.62.62,0,0,0-.19.46ZM30.67,24a2.7,2.7,0,1,0-.79,1.88A2.56,2.56,0,0,0,30.67,24ZM36,1.33V22.67a1.68,1.68,0,0,1-.08.55.79.79,0,0,1-.28.39l-.34.24a1.14,1.14,0,0,1-.49.13l-.47,0h-1a5.33,5.33,0,0,1-9.1,3.77A5.14,5.14,0,0,1,22.67,24h-8a5.14,5.14,0,0,1-1.57,3.77,5.14,5.14,0,0,1-3.77,1.56,5.14,5.14,0,0,1-3.77-1.56A5.14,5.14,0,0,1,4,24H1.67L1.2,24a1.16,1.16,0,0,1-.49-.12L.36,23.6a.79.79,0,0,1-.28-.38A1.7,1.7,0,0,1,0,22.67a1.28,1.28,0,0,1,.4-.94,1.28,1.28,0,0,1,.94-.4V14.67q0-.17,0-.73t0-.79q0-.23.05-.72a3.52,3.52,0,0,1,.13-.77A3.65,3.65,0,0,1,1.81,11a2.91,2.91,0,0,1,.47-.62L6.4,6.27a3.19,3.19,0,0,1,1-.67,3.21,3.21,0,0,1,1.22-.27H12v-4a1.28,1.28,0,0,1,.4-.94,1.28,1.28,0,0,1,.94-.4H34.67a1.28,1.28,0,0,1,.94.4,1.28,1.28,0,0,1,.4.94Z" transform="translate(0 0.01)" style="fill:#ffc400"/></svg>