<svg id="Layer_1" data-name="Layer 1" xmlns="http://www.w3.org/2000/svg" viewBox="0 0 32 24"><title>truck_order_selected</title><g id="Group_29802" data-name="Group 29802"><path id="truck-line" d="M28,6H24V1a1,1,0,0,0-1-1H1A1,1,0,0,0,0,1V19a1,1,0,0,0,1,1H2V2H22V13.7a6.45,6.45,0,0,1,1.56-.2H24V8h4a2,2,0,0,1,2,2v1H26v2h4v5H27.6a4.54,4.54,0,0,0-8.34,0H12.43a4.5,4.5,0,0,0-4.17-2.76A4.38,4.38,0,1,0,12.72,20H19a4.49,4.49,0,0,0,8.92,0H31a1,1,0,0,0,1-1V10A4,4,0,0,0,28,6ZM8.26,22A2.38,2.38,0,1,1,8,17.25h.31A2.38,2.38,0,0,1,8.57,22Zm15.17,0a2.38,2.38,0,1,1,2.5-2.37A2.44,2.44,0,0,1,23.43,22Z" style="fill:#ffc400"/><g id="Group_29801" data-name="Group 29801"><line id="Line_6948" data-name="Line 6948" x1="9.5" y1="8.5" x2="15.5" y2="8.5" style="fill:none;stroke:#fff"/><line id="Line_6949" data-name="Line 6949" x1="12.5" y1="5.5" x2="12.5" y2="11.5" style="fill:none;stroke:#fff"/></g></g></svg>