<svg id="Layer_1" data-name="Layer 1" xmlns="http://www.w3.org/2000/svg" viewBox="0 0 55.81 41.83"><g id="Group_29802" data-name="Group 29802"><path id="truck-line" d="M51.21,11.46h-7V2.75A1.75,1.75,0,0,0,42.48,1H4.13A1.75,1.75,0,0,0,2.38,2.75V34.12a1.75,1.75,0,0,0,1.75,1.76H5.88V4.49H40.75v20.4a11.33,11.33,0,0,1,2.72-.35h.77V15h7a3.48,3.48,0,0,1,3.49,3.48v1.76h-7v3.47h7v8.72H50.51a7.92,7.92,0,0,0-14.54,0H24.07a7.85,7.85,0,0,0-7.27-4.82,7.63,7.63,0,1,0,7.77,8.29h11a7.83,7.83,0,0,0,15.56,0h5.34a1.75,1.75,0,0,0,1.75-1.75V18.43a7,7,0,0,0-7-7ZM16.8,39.35a4.15,4.15,0,0,1-.54-8.28,4.86,4.86,0,0,1,.54,0,4.15,4.15,0,0,1,.54,8.28A2.44,2.44,0,0,1,16.8,39.35Zm26.44,0a4.15,4.15,0,1,1,4.36-4.13A4.24,4.24,0,0,1,43.24,39.35Z" transform="translate(-2.38 -1)" style="fill:#3c3c3c"/></g></svg>