<svg id="Layer_1" data-name="Layer 1" xmlns="http://www.w3.org/2000/svg" viewBox="0 0 55.81 41.83"><g id="Group_29802" data-name="Group 29802"><path id="truck-line" d="M9.35,11.46h7V2.75A1.75,1.75,0,0,1,18.08,1H56.43a1.75,1.75,0,0,1,1.75,1.75V34.12a1.75,1.75,0,0,1-1.75,1.76H54.68V4.49H19.81v20.4a11.33,11.33,0,0,0-2.72-.35h-.77V15h-7a3.49,3.49,0,0,0-3.49,3.48v1.76h7v3.47h-7v8.72h4.19a7.92,7.92,0,0,1,14.54,0h11.9a7.85,7.85,0,0,1,7.27-4.82A7.63,7.63,0,1,1,36,35.85H25a7.83,7.83,0,0,1-15.56,0H4.13A1.75,1.75,0,0,1,2.38,34.1V18.43a7,7,0,0,1,7-7ZM43.76,39.35a4.15,4.15,0,1,0,.54-8.28,4.86,4.86,0,0,0-.54,0,4.15,4.15,0,1,0-.54,8.28A2.44,2.44,0,0,0,43.76,39.35Zm-26.44,0A4.15,4.15,0,1,0,13,35.22,4.25,4.25,0,0,0,17.32,39.35Z" transform="translate(-2.38 -1)" style="fill:#3c3c3c"/></g></svg>