<svg id="Layer_1" data-name="Layer 1" xmlns="http://www.w3.org/2000/svg" viewBox="0 0 31.63 37.09"><path d="M32.82,20.11c.46-1.06.92-2.11,1.39-3.16a.67.67,0,0,0-.24-.9L29.66,14a.67.67,0,0,0-.9.23l-.13.31V9a1.9,1.9,0,0,0-.83-1.67L24.36,4C23.79,3.43,23,2.22,22.13,2a9.22,9.22,0,0,0-1.82,0H3.25a.6.6,0,0,0-.59.59V38.49a.6.6,0,0,0,.59.59H28.42a.6.6,0,0,0,.59-.59V29.57m.64-14.17,3.14,1.53L25.22,34.16s-.08.15-.13.25l-.17.06-2.13.73c-.19-.57-.39-1.14-.59-1.72a3.16,3.16,0,0,0-.2-.59,0,0,0,0,1,0,0,30.34,30.34,0,0,0,1.49-3.41l5.09-11.6ZM25.4,34.3l0,0S25.4,34.29,25.4,34.3ZM22,32.76c0-.07,0-.08,0,0ZM26,7.29c.24.23.48.49.72.73H22.2V3.55c.18.18.37.34.4.37Zm1.8,30.6h-24V3.22h15c.71,0,1.46.06,2.19,0V8.61a.61.61,0,0,0,.59.6h5.77c0,.46.07,1,.07,1.36V17a.7.7,0,0,0,0,.14c-2.21,5-4.44,10.06-6.63,15.1a1.35,1.35,0,0,0-.06,1.13c.3,1,.65,1.9,1,2.85a.38.38,0,0,0,.09.15.56.56,0,0,0,.71.31L25,35.82c.46-.16.91-.23,1.18-.64A22.13,22.13,0,0,0,27.62,32l.21-.48Z" transform="translate(-2.66 -1.99)" style="fill:#fcc401"/><path d="M8.46,16.37a6.1,6.1,0,0,0,1.95,1.21,6.17,6.17,0,0,0,7.44-8.94,6.05,6.05,0,0,0-.75-1,1.05,1.05,0,0,0-.4-.41,6.3,6.3,0,0,0-5.33-1.51,6.22,6.22,0,0,0-5,6A6.22,6.22,0,0,0,8,15.88.91.91,0,0,0,8.46,16.37Zm7.76-7a4.41,4.41,0,0,1-4.46,6.78,4.35,4.35,0,0,1-1.64-.68L16,9.57ZM11,7.65a4.49,4.49,0,0,1,4,.46c-2,2-3.93,3.94-5.9,5.9l-.2.2a4.49,4.49,0,0,1-.75-2.42A4.44,4.44,0,0,1,11,7.65Z" transform="translate(-2.66 -1.99)" style="fill:#fcc401"/><path d="M6.4,21.77H16.89a.59.59,0,0,0,0-1.18H6.4A.59.59,0,0,0,6.4,21.77Z" transform="translate(-2.66 -1.99)" style="fill:#fcc401"/><path d="M6.4,24.92h5.24a.59.59,0,0,0,0-1.18H6.4A.59.59,0,0,0,6.4,24.92Z" transform="translate(-2.66 -1.99)" style="fill:#fcc401"/><path d="M14.79,23.74a.59.59,0,1,0,0,1.18H19a.59.59,0,1,0,0-1.18H14.79Z" transform="translate(-2.66 -1.99)" style="fill:#fcc401"/><path d="M21.08,27.93H6.4a.6.6,0,0,0,0,1.19H21.08A.6.6,0,0,0,21.08,27.93Z" transform="translate(-2.66 -1.99)" style="fill:#fcc401"/></svg>