<svg id="Layer_1" data-name="Layer 1" xmlns="http://www.w3.org/2000/svg" viewBox="0 0 31.63 37.09"><path d="M36.51,19.37c.46-1.05.93-2.1,1.39-3.16a.66.66,0,0,0-.24-.89l-4.31-2.11a.65.65,0,0,0-.89.24l-.14.31V8.3a1.91,1.91,0,0,0-.83-1.68L28.05,3.25c-.57-.56-1.39-1.77-2.23-1.94a9.12,9.12,0,0,0-1.81,0H6.94a.6.6,0,0,0-.59.59V37.75a.6.6,0,0,0,.59.59H32.11a.61.61,0,0,0,.6-.59V28.84m.63-14.18,3.14,1.54L28.92,33.42s-.09.15-.14.26l-.17.06-2.12.73-.6-1.72a2.93,2.93,0,0,0-.2-.59v0a30.48,30.48,0,0,0,1.49-3.42l5.1-11.59C32.62,16.3,33,15.48,33.34,14.66ZM29.1,33.57h0S29.09,33.56,29.1,33.57ZM25.64,32c0-.08,0-.08,0,0ZM29.73,6.55l.72.74H25.89V2.82l.4.37Zm1.79,30.61h-24V2.49h15c.71,0,1.46.06,2.19,0V7.88a.6.6,0,0,0,.6.59h5.76c0,.47.07,1,.07,1.37v6.41a.49.49,0,0,0,0,.14Q27.85,24,24.53,31.49a1.42,1.42,0,0,0-.06,1.14c.31.95.65,1.9,1,2.84a.61.61,0,0,0,.09.16.54.54,0,0,0,.71.3l2.47-.85a1.94,1.94,0,0,0,1.17-.64,21.67,21.67,0,0,0,1.42-3.23l.21-.48Z" transform="translate(-6.35 -1.25)"/><path d="M12.15,15.64a6.47,6.47,0,0,0,1.95,1.21,6.18,6.18,0,0,0,7.44-9,6.44,6.44,0,0,0-.75-1,.93.93,0,0,0-.4-.41,6.16,6.16,0,0,0-10.33,4.54,6.27,6.27,0,0,0,1.6,4.09A1.06,1.06,0,0,0,12.15,15.64Zm7.76-7a4.42,4.42,0,0,1-4.46,6.79,4.28,4.28,0,0,1-1.64-.69l5.88-5.88ZM14.7,6.91a4.48,4.48,0,0,1,4,.47l-5.89,5.9-.21.2a4.52,4.52,0,0,1-.75-2.42A4.45,4.45,0,0,1,14.7,6.91Z" transform="translate(-6.35 -1.25)"/><path d="M10.09,21H20.58a.59.59,0,0,0,0-1.18H10.09A.59.59,0,0,0,10.09,21Z" transform="translate(-6.35 -1.25)"/><path d="M10.09,24.19h5.24a.6.6,0,0,0,0-1.19H10.09A.6.6,0,0,0,10.09,24.19Z" transform="translate(-6.35 -1.25)"/><path d="M18.48,23a.6.6,0,0,0,0,1.19h4.19a.62.62,0,0,0,.6-.6.6.6,0,0,0-.6-.59H18.48Z" transform="translate(-6.35 -1.25)"/><path d="M24.77,27.2H10.09a.59.59,0,0,0,0,1.18H24.77A.59.59,0,0,0,24.77,27.2Z" transform="translate(-6.35 -1.25)"/></svg>